<svg width="324" height="205" viewBox="0 0 324 205" fill="none" xmlns="http://www.w3.org/2000/svg">
<g opacity="0.6">
<path opacity="0.6" fill-rule="evenodd" clip-rule="evenodd" d="M322.457 140.81C326.955 177.758 217.861 201.858 123.961 185.039C30.0615 168.221 -13.0153 102.541 31.7921 67.5444C76.5998 32.5475 317.958 103.861 322.457 140.81Z" fill="#F85959"/>
</g>
<path d="M96.5285 82.1421C100.019 84.4692 100.892 90.1415 100.892 92.6868L101.619 93.0504L100.892 89.0507V87.2326L103.074 89.7779L111.073 100.323L115.073 109.049L114.345 115.231L113.618 116.321L116.163 118.867L134.344 114.503L136.162 116.321L150.343 109.049L156.888 100.686V106.14L159.797 107.231H167.069L169.251 109.049L159.797 114.14L150.343 119.594L135.071 126.503L132.162 128.684L135.435 140.32L138.344 146.501L147.434 155.591L151.797 158.864L163.433 167.954L167.433 173.772L161.978 174.136H147.434H124.89L115.8 174.863L101.619 172.681L97.1214 169.819L97.983 173.772L95.8013 174.136L60.5311 174.863L55.8041 176.681V171.227L68.8941 126.503L71.803 118.867L76.5299 114.503L78.824 114.34C78.889 112.857 78.9217 111.134 78.7116 110.504C78.348 109.413 76.8936 102.141 76.8936 101.413C76.8936 100.686 76.5299 86.1418 76.5299 84.6873C76.5299 83.5238 81.1357 79.5968 83.4385 77.7787L90.3471 75.9607C90.9532 77.0515 93.0379 79.815 96.5285 82.1421Z" fill="white"/>
<path d="M166.068 77.7846L178.475 81.6022V83.0339L175.135 93.0552L168.931 107.849L156.524 106.417L157.478 100.69L158.91 95.9184L163.204 82.0794L166.068 77.7846Z" fill="white"/>
<path d="M123.436 61.7799L125.981 55.2349C124.042 53.6592 120.163 50.4352 120.163 50.1443C120.163 49.8534 112.406 48.3263 108.528 47.5991L95.0741 55.2349L98.7102 72.6882L107.437 75.2335H117.254L120.163 70.8701L123.436 69.0521V61.7799Z" fill="white"/>
<path d="M213.611 159.591L223.792 151.228L224.883 154.137L229.61 159.591L243.413 165.072L238.7 161.773L237.246 155.228L236.519 140.683L237.973 132.32L247.791 131.593L268.153 130.866L269.607 133.048L272.152 149.046L270.334 162.864L264.88 173.772L256.881 174.499L254.803 173.045H218.338L216.52 165.045L213.611 159.591Z" fill="white"/>
<path d="M178.341 161.773L176.159 162.136V167.227L179.795 173.772L189.613 173.045L192.522 166.5V162.136L191.795 160.682L178.341 161.773Z" fill="white"/>
<path d="M268.153 118.14L265.608 129.411L250.336 130.866L237.973 131.593L236.519 128.321L230.337 122.503L220.883 110.504L215.793 99.5954L213.611 90.5051L219.793 98.1409L230.337 109.049L237.973 120.685L239.064 115.594L237.246 107.595L235.791 92.6868V73.4154L237.973 66.8704L240.882 83.9601L246.336 109.049L248.881 107.595L247.791 88.687L249.609 74.5062L255.063 62.8707L254.336 79.5968L256.517 106.14L259.426 119.594L262.335 103.595L266.698 83.9601L268.153 76.3243L273.971 67.5976L278.334 66.1432L270.334 87.5962L268.88 97.4137L268.153 118.14Z" fill="white"/>
<path fill-rule="evenodd" clip-rule="evenodd" d="M222.085 150.368C221.01 151.611 219.423 152.534 218.205 153.67C216.926 154.864 215.538 155.907 214.264 157.087C208.645 150.219 200.947 146.007 194.278 140.308C191.116 137.606 188.787 133.941 187.083 130.179C186.209 128.251 185.563 126.266 185.058 124.212C184.83 123.287 184.608 122.365 184.459 121.427C184.279 120.291 184.232 120.194 183.466 119.308C183.136 118.926 182.497 117.812 181.851 117.934C181.307 118.038 180.313 119.693 179.969 120.102C178.317 122.068 176.715 124.094 174.975 125.985C172.313 128.877 169.89 131.723 167.419 134.789C162.363 141.06 156.91 146.964 151.407 152.866C150.999 153.303 150.047 154.587 149.461 154.759C148.748 154.969 147.589 154.094 146.871 153.606C145.138 152.426 143.772 150.965 142.29 149.503C139.399 146.649 137.441 142.643 136.124 138.832C135.336 136.551 134.823 134.186 134.01 131.912C133.671 130.964 132.902 129.8 133.292 128.974C133.408 128.728 134.148 128.075 134.409 128.025C134.717 127.965 135.231 128.388 135.339 128.359C136.362 128.079 135.794 127.008 136.403 126.431C136.748 126.104 138.503 126.152 139.027 125.973C140.943 125.315 142.662 124.062 144.473 123.313C152.055 120.181 159.73 117.133 166.276 112.018C167.974 110.691 169.102 109.694 171.128 108.837C173.175 107.97 175.232 107.197 177.321 106.441C179.164 105.774 181.017 105.149 182.921 104.671C184.979 104.154 187.899 103.498 189.956 104.164C193.995 105.472 195.3 108.8 196.908 112.311C199.084 117.061 201.716 121.556 204.568 125.928C210.056 134.34 216.73 141.888 222.085 150.368Z" fill="#FF5678"/>
<path fill-rule="evenodd" clip-rule="evenodd" d="M100.442 76.0029C100.22 75.8901 98.4848 76.5964 98.1935 76.7045C97.03 77.1361 95.9342 77.8534 94.838 78.4369C95.6781 79.4592 96.5184 80.4818 97.3582 81.5044C98.1816 79.4847 99.2398 77.8182 100.442 76.0029ZM101.015 88.5691C100.729 88.6012 103.142 94.3999 103.424 95.051C104.45 97.4191 105.526 99.7641 106.565 102.126C107.572 104.415 108.849 106.521 110.135 108.66C111.236 110.488 112.367 113.326 114.027 114.681C112.979 110.031 113.117 104.685 110.111 100.781C106.995 96.7342 103.914 92.7822 101.015 88.5691ZM222.085 150.576C217.429 143.202 211.6 136.679 206.744 129.437C204.025 125.382 201.379 121.275 199.09 116.958C197.426 113.819 196.391 109.339 193.82 106.938C192.687 105.881 191.477 104.846 189.956 104.372C187.876 103.723 185.011 104.366 182.921 104.879C179.026 105.834 175.221 107.317 171.531 108.874C167.789 110.454 164.597 113.291 161.216 115.571C157.589 118.017 153.663 119.799 149.599 121.359C146.061 122.717 142.913 124.666 139.394 126.033C138.692 126.306 137.261 126.266 136.673 126.621C136.039 127.004 136.289 128.133 135.519 128.55C135.172 128.738 135.056 128.056 134.79 128.067C134.464 128.081 134.166 128.463 133.852 128.706C132.573 129.693 133.357 130.351 133.863 131.708C135.514 136.133 136.401 140.634 138.719 144.811C140.625 148.245 143.352 151.321 146.563 153.594C147.052 153.94 148.644 155.28 149.217 155.191C149.734 155.111 150.784 153.739 151.14 153.366C152.757 151.675 154.235 149.856 155.851 148.162C158.349 145.545 160.753 142.857 163.176 140.204C165.99 137.124 168.479 133.634 171.013 130.343C172.179 128.829 173.679 127.596 174.975 126.192C176.717 124.305 178.317 122.275 179.97 120.31C180.469 119.715 181.307 118.193 182.084 118.211C182.628 118.223 183.588 119.505 183.873 119.907C184.932 121.4 184.927 124.097 185.453 125.961C186.738 130.506 189.054 134.946 192.231 138.453C195.39 141.941 199.436 144.422 203.172 147.225C207.22 150.263 211.054 153.371 214.264 157.294C215.538 156.115 216.926 155.072 218.205 153.878C219.423 152.741 221.01 151.819 222.085 150.576ZM162.147 171.436C163.052 171.446 164.585 172.002 165.395 171.667C162.993 169.009 160.787 166.729 157.748 164.781C154.594 162.76 151.451 160.756 148.387 158.6C142.214 154.255 137.674 149.102 135.095 141.867C134.431 140.003 133.986 138.049 133.499 136.134C133.238 135.102 132.717 130.276 131.832 129.859C131.307 129.612 127.362 132.385 126.737 132.731C125.275 133.539 123.808 134.166 122.297 134.799C119.049 136.159 115.7 137.196 112.256 138.062C108.126 139.1 105.313 137.382 102.755 134.137C99.8526 130.454 97.4408 126.299 94.7871 122.432C93.5804 120.673 92.5806 118.917 91.6894 116.977C91.1061 115.708 88.7928 112.283 89.5922 110.931C91.8727 112.667 92.6932 116.12 94.2467 118.444C96.1828 121.342 98.3648 124.073 100.311 126.968C101.948 129.402 103.617 132.352 106.035 134.102C108.162 135.641 110.182 135.167 112.471 134.476C115.245 133.637 118.12 133.224 120.839 132.185C123.781 131.06 126.565 129.464 129.435 128.163C130.773 127.556 132.376 127.211 133.637 126.454C134.723 125.803 134.561 125.459 134.641 124.071C134.734 122.452 134.842 120.832 134.913 119.212C134.961 118.123 134.373 116.647 134.772 115.834C131.513 116.399 128.328 117.156 125.092 117.825C123.321 118.192 121.612 118.645 119.822 118.933C119.14 119.043 118.208 119.039 117.597 119.337C117.109 119.197 116.861 119.286 116.851 119.603C116.828 119.776 116.791 119.946 116.74 120.113C115.741 120.568 115.16 119.593 114.293 118.658C113.224 117.504 112.423 116.204 111.639 114.848C109.884 111.815 107.862 108.963 106.239 105.846C104.584 102.668 103.24 99.2648 101.837 95.9675C100.55 92.9423 99.7263 89.6707 98.3041 86.7172C97.6695 85.3988 96.8651 84.3087 95.9258 83.1949C95.1507 82.2759 93.9583 80.2933 92.8008 79.8712C92.4947 79.7596 91.6932 79.9471 91.3455 79.9223C90.6526 79.8728 90.035 79.6184 89.3259 79.6741C87.7905 79.7943 86.1165 80.7652 84.8896 81.6188C85.6825 82.3256 87.666 83.1847 86.2412 84.4579C84.8586 85.6939 84.095 83.4767 83.5674 82.5053C81.0829 84.5454 81.442 87.3585 81.155 90.2411C81.0051 91.746 80.6108 93.2281 80.3564 94.7105C80.1732 95.7773 80.3017 96.8808 80.2493 97.97C80.1158 100.738 79.8376 103.387 79.8512 106.116C79.8655 109.033 80.0642 111.851 80.2976 114.746C80.6905 119.622 81.5908 124.499 82.3628 129.336C82.7971 132.055 83.3915 134.696 83.9686 137.371C84.6235 140.407 85.835 143.283 86.5144 146.311C87.2067 145.431 87.7274 145.426 88.8471 145.543C89.7083 145.633 90.2868 145.428 90.2363 146.623C90.2037 147.398 89.5198 147.99 88.7631 148.126C87.7762 148.302 87.4409 147.81 86.9323 147.062C86.8133 148.478 87.7652 149.958 88.1417 151.34C88.498 152.65 88.734 153.934 89.3328 155.188C89.917 156.411 90.4172 157.618 91.0083 158.829C91.2806 159.387 91.5352 159.953 91.8105 160.509C91.9498 160.79 92.1137 161.178 92.3215 161.415C92.8088 161.972 92.7313 161.702 93.3017 162.019C94.5444 162.709 94.0777 162.537 94.1068 163.963C94.1351 165.369 94.8561 166.402 96.0124 167.192C98.4657 168.869 100.885 169.336 103.674 170.183C106.273 170.973 109.01 171.65 111.762 171.635C115.132 171.616 118.458 171.174 121.828 171.13C125.546 171.08 129.3 171.101 133.01 171.229C134.539 171.282 135.958 171.35 137.434 171.74C139.148 172.194 140.805 172.014 142.572 171.945C146.34 171.798 150.238 171.507 153.956 171.481C156.634 171.462 159.459 171.275 162.147 171.436ZM259.856 172.897C260.526 173.251 262.028 173.106 262.701 173.007C263.887 172.834 264.014 172.364 264.767 171.306C266.063 169.485 267.115 167.74 267.877 165.63C269.336 161.591 269.931 157.46 270.572 153.235C271.283 148.541 269.984 143.675 269.519 139.012C269.412 137.943 269.266 136.883 269.097 135.821C268.995 135.186 268.969 133.027 268.551 132.478C267.749 131.422 264.018 132.274 262.55 132.369C258.455 132.637 254.333 132.699 250.24 132.746C248.058 132.771 245.863 132.862 243.702 132.879C242.71 132.887 241.74 132.837 240.744 132.741C240.411 132.709 240.086 132.632 239.75 132.613C238.601 132.55 238.687 132.383 238.39 133.401C237.87 135.183 238.27 137.451 238.134 139.301C237.951 141.773 237.852 144.28 237.898 146.757C237.939 149.047 237.861 151.331 237.947 153.625C237.983 154.575 238.086 155.35 238.337 156.257C238.62 157.283 238.932 159.68 239.638 160.39C239.718 160.471 240.318 160.282 240.477 160.484C240.723 160.794 240.678 161.45 240.846 161.65C241.391 162.299 242.518 162.35 243.335 162.642C245.578 163.442 247.636 164.31 249.75 165.388C251.639 166.352 254.684 167.172 255.82 169.073C256.34 169.944 256.41 171.094 256.889 171.993C257.434 173.017 256.344 172.481 257.679 172.897C258.281 173.084 259.24 172.897 259.856 172.897ZM60.7305 161.313C60.5606 163.678 59.2281 165.931 58.7643 168.256C58.5473 169.345 58.1792 170.416 57.924 171.498C57.6794 172.537 56.7956 173.767 56.8851 174.794C60.1472 173.632 63.4515 173.34 66.8609 173.026C70.0924 172.729 73.5061 172.611 76.7104 172.609C79.9756 172.608 83.467 172.289 86.829 172.239C90.3451 172.188 93.9142 172.097 97.3794 171.732C95.5674 170.39 93.3003 169.13 91.9624 167.263C90.5079 165.233 89.7525 162.69 88.4727 160.548C85.9045 156.25 84.2718 150.917 82.9256 146.088C80.2077 136.34 77.1704 126.772 76.4384 116.661C75.0453 117.375 73.9394 120.143 73.2419 121.521C72.3517 123.281 71.8855 125.188 71.3067 127.059C70.115 130.912 69.2901 134.906 67.8309 138.722C65.0418 146.016 63.2492 153.876 60.7305 161.313ZM237.81 104.5C238.413 108.859 239.678 113.276 239.726 117.688C239.737 118.658 239.573 119.737 239.775 120.694C239.991 121.715 240.694 122.619 241.1 123.59C241.743 125.132 243.374 128.291 241.802 129.598C241.77 128.358 240.635 126.784 240.064 125.7C239.203 124.067 238.071 122.573 237.137 120.981C235.183 117.647 232.993 114.384 230.475 111.446C228.022 108.583 225.195 106.043 222.593 103.317C221.812 102.498 215.542 94.6148 215.293 94.725C217.238 102.225 220.544 108.75 225.068 115.029C227.286 118.107 229.948 120.133 232.649 122.74C234.897 124.912 239.135 127.234 238.358 130.793C241.873 130.455 245.365 129.915 248.912 129.915C248.329 125.425 247.882 121.007 246.841 116.592C245.658 111.578 244.858 106.414 243.857 101.356C242.836 96.1916 241.105 91.1923 240.027 86.038C238.996 81.1024 238.109 76.1757 237.353 71.1851C236.728 73.9504 236.959 76.9876 236.737 79.8091C236.51 82.6916 236.532 85.5211 236.608 88.4206C236.747 93.8062 237.321 99.1268 237.81 104.5ZM253.041 78.8229C253.061 76.5176 253.508 74.2436 253.645 71.9438C253.688 71.2382 254.391 66.4242 253.735 66.1729C253.196 67.348 253.071 68.8518 252.581 70.0847C252.092 71.3165 251.438 72.4899 250.969 73.7303C249.952 76.4172 249.601 79.4576 249.492 82.3142C249.244 88.7757 249.116 95.2226 249.55 101.684C249.736 104.454 249.879 107.228 249.828 110.003C249.772 113.056 249.305 115.707 249.872 118.735C250.435 121.734 250.788 124.721 250.975 127.763C251.106 129.899 251.159 129.748 253.197 129.598C254.668 129.489 256.153 129.605 257.626 129.538C256.937 121.214 256.825 112.874 255.725 104.582C255.163 100.352 255.148 96.0612 254.451 91.847C254.105 89.7535 253.523 87.7022 253.189 85.6063C252.83 83.3561 253.007 81.0905 253.041 78.8229ZM104.044 73.5849C107.967 73.9247 112.139 75.0974 116.16 74.323C115.497 74.0546 113.762 73.6843 114.543 72.6249C115.337 71.5476 116.674 72.914 117.466 72.7729C117.954 72.6858 119.032 70.6456 119.333 70.2232C120.016 69.2633 120.098 69.096 121.326 68.8499C122.515 68.6119 122.785 68.8696 122.935 67.6872C123.108 66.3274 122.638 64.7986 122.685 63.4081C122.785 60.4147 123.75 57.7896 124.649 54.9732C120.83 55.8039 117.096 56.7892 113.192 57.3246C111.523 57.5535 108.926 58.0816 107.409 56.9469C107.015 56.6518 107.078 56.2535 106.756 55.9115C106.214 55.3377 105.211 54.7442 104.443 54.5808C99.7201 53.5753 99.2594 60.3083 101.626 62.8277C102.219 63.4591 103.044 63.7708 103.651 64.3493C104.461 65.1208 104.528 65.9335 104.646 67.1113C104.868 69.3197 104.566 71.5366 103.624 73.5568L104.044 73.5849ZM161.359 105.371C162.753 105.636 164.208 105.575 165.606 105.801C166.103 105.881 167.592 106.161 168.029 105.871C168.695 105.427 168.932 103.801 169.248 103.044C169.802 101.712 170.587 100.55 171.116 99.1941C173.276 93.6546 175.291 88.0929 177.905 82.7426C176.903 82.4822 176.134 82.472 175.124 82.3375C174.073 82.1974 173.119 81.5755 172.116 81.3083C171.163 81.0544 170.164 81.1191 169.219 80.8238C168.698 80.6612 168.252 80.2998 167.739 80.1734C166.921 79.9723 165.966 79.8547 165.48 80.3916C164.981 80.9423 164.806 82.4522 164.535 83.1635C163.813 85.0585 162.973 86.8873 162.368 88.8259C161.822 90.5743 161.303 92.3041 160.822 94.0684C160.315 95.9311 159.314 97.4662 158.704 99.2455C158.24 100.6 157.803 101.984 157.733 103.428C157.666 104.837 157.461 104.927 158.87 105.152C159.581 105.266 160.69 105.688 161.359 105.371ZM253.095 171.317C253.458 171.487 253.801 171.464 254.122 171.25C250.974 169.92 247.911 168.076 244.627 167.163C241.546 166.308 238.551 165.285 235.583 164.232C233.171 163.375 231.003 162.709 228.822 161.202C227.498 160.287 226.323 159.259 225.413 157.922C224.4 156.434 224.175 154.316 223.078 152.975C221.598 154.601 219.859 155.832 218.108 157.124C217.502 157.571 216.049 158.545 215.842 159.237C215.58 160.109 216.281 160.944 216.627 161.827C217.515 164.089 217.948 166.349 218.43 168.701C218.623 169.643 219.039 171.06 219.813 171.455C220.518 171.814 222.56 171.553 223.437 171.486C228.013 171.139 232.508 170.784 237.112 171.1C242.322 171.457 247.899 171.704 253.095 171.317ZM262.236 129.407C263.067 129.41 263.88 129.306 264.708 129.306C264.23 127.073 265.348 124.183 265.745 121.953C266.188 119.46 266.526 116.881 266.822 114.367C267.445 109.073 267.728 103.842 267.736 98.5088C267.744 93.3478 268.683 88.6317 269.999 83.6704C271.412 78.3422 273.726 73.5506 275.639 68.412C273.541 69.5215 272.379 72.1175 271.276 74.1022C269.882 76.6116 268.954 79.3902 268.384 82.2074C267.286 87.642 266.082 93.093 264.814 98.5185C263.495 104.168 262.719 109.869 261.207 115.472C260.47 118.204 259.468 121.566 259.412 124.384C259.389 125.549 259.038 127.991 259.566 129.003C260.06 129.95 261.152 129.504 262.236 129.407ZM136.692 122.398C136.649 122.978 136.607 123.53 136.504 124.103C137.656 124.092 139.115 122.897 140.103 122.36C141.307 121.706 142.512 120.985 143.689 120.328C145.962 119.059 148.542 118.223 150.969 117.181C153.756 115.984 156.319 114.537 158.984 113.095C159.916 112.592 166.608 109.691 166.495 108.898C165.026 108.849 163.557 108.8 162.088 108.752C160.828 108.71 158.877 108.994 157.671 108.605C157.01 108.392 156.268 107.606 156.019 106.991C155.772 106.382 156.327 103.582 156.004 103.404C154.36 105.083 153.326 107.314 151.856 109.125C150.231 111.127 148.132 112.296 145.818 113.36C143.263 114.535 140.618 115.445 138.007 116.452C136.906 116.876 136.927 117.119 136.832 118.327C136.724 119.676 136.736 121.045 136.692 122.398ZM269.469 173.172C272.239 173.469 275.077 173.3 277.869 173.532C278.885 173.616 280.293 173.742 279.271 175.105C278.627 175.963 276.566 175.688 275.631 175.747C273.121 175.907 270.463 175.821 267.947 175.784C267.417 175.776 266.831 175.619 266.296 175.654C265.678 175.695 264.938 176.14 264.375 176.136C264.027 176.134 263.903 175.768 263.603 175.734C262.951 175.661 262.299 175.607 261.641 175.608C251.696 175.61 241.888 175.41 231.968 175.399C227.224 175.394 222.405 175.312 217.663 175.09C216.667 175.043 210.997 175.246 211.154 173.454C211.235 172.53 213.085 172.4 213.761 172.302C214.261 172.229 214.781 172.241 215.282 172.214C216.614 172.143 217.198 172.463 216.917 171.006C215.851 165.477 213.941 160.908 209.86 156.933C206.523 153.682 202.505 150.734 198.726 148.019C194.137 144.723 190.414 141.257 187.689 136.214C186.098 133.269 184.766 130.258 183.949 127.001C183.655 125.83 183.648 124.497 183.287 123.368C183.01 122.498 182.378 121.89 182.006 120.989C177.44 128.615 171.388 134.995 165.84 141.871C163.189 145.156 160.164 148.276 156.997 151.134C156.057 151.982 155.179 152.868 154.302 153.781C153.568 154.544 152.403 155.223 151.783 156.071C151.189 156.884 151.335 156.845 152.24 157.491C153.436 158.344 154.754 159.053 155.969 159.885C157.911 161.215 160.03 162.338 161.767 163.939C163.645 165.67 165.285 167.675 166.926 169.627C168.02 170.928 169.456 172.597 169.731 174.242C169.822 174.786 170.168 176.132 169.711 176.531C169.321 176.872 169.36 176.742 168.876 176.535C168.241 176.262 168.054 175.638 167.279 175.34C165.294 174.578 162.893 174.84 160.828 174.831C158.762 174.821 156.68 175.053 154.615 175.045C149.9 175.026 145.286 175.407 140.573 175.612C135.567 175.83 130.499 175.308 125.51 175.382C121.813 175.436 118.018 175.16 114.219 175.365C112.265 175.471 110.346 175.226 108.441 175.199C105.946 175.163 103.385 175.503 100.869 175.551C96.7395 175.631 92.6606 175.63 88.506 175.729C79.5697 175.943 70.6816 176.164 61.74 176.306C60.5472 176.325 59.2415 176.284 58.0628 176.418C56.8118 176.561 57.4576 176.827 56.5992 177.277C54.1962 178.538 54.7511 173.865 54.8087 172.946C55.1176 168.021 56.3679 163.19 57.8705 158.515C59.296 154.08 60.4532 149.439 61.6605 144.908C62.9819 139.95 64.7037 135.194 66.2672 130.284C67.8692 125.253 69.1735 120.025 72.0832 115.566C72.746 114.55 73.4309 113.457 74.497 112.816C75.6921 112.099 75.7435 112.518 75.7426 111.204C75.7418 109.966 75.818 108.313 75.526 107.132C75.2621 106.066 75.3028 106.698 74.7086 105.932C74.225 105.309 73.7191 104.883 73.3721 104.126C71.2408 106.287 66.3621 105.147 64.3029 103.59C61.7826 101.686 59.8628 98.4724 59.1594 95.412C58.5944 92.9545 59.2876 88.27 62.0077 87.0882C63.3337 86.5121 68.204 86.0766 68.3989 84.199C68.4994 83.2297 66.7852 81.8668 66.3897 81.0334C65.6568 79.4895 64.9528 77.4357 64.7491 75.7433C64.3512 72.4397 65.851 68.7457 68.24 66.5142C72.6225 62.4206 80.3336 60.3197 85.9709 62.917C84.7796 58.3662 84.0605 54.4404 84.6604 49.7066C85.1773 45.6284 87.5834 43.3467 90.8943 41.3154C96.5443 37.8485 104.228 36.4802 110.688 37.4882C112.156 37.7174 113.565 38.2088 114.924 38.5998C116.899 39.1678 119.263 38.9787 121.127 39.9016C122.479 40.5705 123.506 41.9032 124.693 42.793C126.079 43.8317 127.231 45.3821 128.194 46.8159C130.254 49.882 129.449 55.5724 127.725 58.6501C127.355 59.3102 126.899 59.8659 126.287 60.3164C125.65 60.7852 124.68 60.9311 124.352 61.5391C123.511 63.0966 124.322 66.4685 124.434 68.1519C124.565 70.1066 123.576 71.5749 121.36 71.7308C120.078 71.8212 120.037 71.0773 119.423 72.608C119.025 73.6001 118.663 74.681 118.089 75.5905C116.905 77.465 114.737 77.282 112.762 77.2313C110.475 77.1723 108.223 76.8111 105.935 76.5831C106.539 78.519 108.193 80.0216 109.226 81.7462C110.623 84.0788 111.463 86.0123 111.69 88.73C111.864 90.8179 111.488 92.4669 110.06 94.0208C109.468 94.6641 108.944 94.6957 109.091 95.4377C109.18 95.8904 109.963 96.6371 110.24 96.9984C110.973 97.9541 111.823 98.8312 112.468 99.8519C114.95 103.779 115.683 109.765 115.689 114.337C115.689 114.547 115.801 114.992 115.709 115.209C115.64 115.369 115.119 115.876 115.112 115.92C115.01 116.508 115.583 117.515 116.482 117.615C117.427 117.719 119.157 116.931 120.035 116.672C121.441 116.258 122.874 115.952 124.277 115.526C126.543 114.839 128.798 114.29 131.101 113.751C132.142 113.508 133.189 113.306 134.233 113.078C135.423 112.819 135.975 112.319 136.589 113.529C137.116 114.567 136.788 114.755 138.064 114.232C139.331 113.712 140.568 113.068 141.805 112.481C143.987 111.446 146.584 110.524 148.466 108.996C151.605 106.448 152.767 102.389 155.771 99.6853C156.607 98.9324 157.106 98.9191 157.635 97.876C158.201 96.7597 158.493 95.328 158.791 94.1272C159.312 92.0245 159.683 89.9144 160.156 87.8135C160.745 85.1963 162.018 82.8261 162.947 80.3297C163.309 79.3571 163.496 78.1209 164.08 77.2468C164.235 77.015 164.53 76.8844 164.651 76.6926C165.066 76.0341 165.062 75.8532 165.169 75.061C165.673 71.3593 167.882 73.3067 170.297 74.1555C171.314 74.5132 176.145 76.8327 174.3 78.3753C176.499 79.0133 180.021 78.6665 179.991 81.8178C179.976 83.4324 179.01 85.1597 178.492 86.671C178.031 88.013 177.586 89.3601 177.119 90.6999C176.094 93.6348 174.851 96.482 173.852 99.4259C173.396 100.768 173.02 102.141 172.386 103.407C171.826 104.524 170.471 105.755 170.248 106.977C176.108 104.477 181.529 100.863 188.087 101.093C190.959 101.194 193.565 102.401 195.152 104.926C197.14 108.091 198.448 111.635 200.392 114.829C207.462 126.449 215.895 137.006 223.657 148.145C224.253 149.001 225.02 149.81 225.227 150.868C225.362 151.558 225.1 152.248 225.262 152.911C225.597 154.289 227.294 156.009 228.444 156.801C230.649 158.319 234.234 160.46 236.986 160.27C235.259 156.12 235.282 151.573 235.362 147.146C235.438 142.94 235.893 138.769 236.432 134.607C236.554 133.665 236.661 132.792 236.931 131.88C237.242 130.833 237.668 130.932 236.738 129.991C235.307 128.542 233.604 127.349 232.16 125.882C229.039 122.709 225.839 120.221 223.383 116.432C221.046 112.828 218.581 109.12 216.852 105.173C215.071 101.11 214.359 96.7711 213.476 92.4683C213.117 90.7223 211.809 88.773 212.072 86.9497C212.404 84.6454 213.472 86.3233 213.907 87.5634C215.235 91.3489 218.343 94.7369 220.917 97.7813C223.699 101.07 227.101 103.822 230.004 107.015C233.165 110.493 235.331 114.489 238.142 118.202C238.142 113.595 236.569 108.903 235.926 104.346C235.36 100.334 235.182 96.3099 234.824 92.281C234.011 83.129 234.714 73.7074 235.854 64.6209C236.396 60.3055 236.089 56.0917 236.105 51.7615C236.111 50.3834 235.54 47.2071 236.267 45.9842C237.66 43.6418 238.472 48.7637 238.542 49.5274C238.963 54.0765 238.208 58.5749 238.594 63.1045C238.997 67.8347 239.872 72.4321 240.616 77.1076C241.423 82.17 242.736 87.1182 243.993 92.0835C245.312 97.2968 246.422 102.619 247.89 107.79C248.285 106.165 247.73 104.168 247.62 102.512C247.464 100.143 247.158 97.7732 247.132 95.3978C247.089 91.6118 247.06 87.7557 247.274 83.9874C247.485 80.2731 247.421 76.381 248.56 72.8026C249.101 71.1042 249.894 69.4472 250.67 67.8473C251.627 65.8745 251.965 63.9617 252.495 61.8635C252.949 60.0665 253.614 58.3169 253.916 56.4841C254.104 55.3442 254.629 51.9792 255.934 54.5286C256.692 56.0084 256.364 58.202 256.386 59.7917C256.413 61.8297 256.101 63.8113 256.053 65.8407C255.96 69.8225 255.893 73.7995 255.596 77.7746C255.284 81.9451 255.556 85.6827 256.35 89.792C257.218 94.2902 257.472 98.7982 257.922 103.351C258.154 105.702 258.546 108.04 258.735 110.394C258.835 111.641 258.322 115.216 259.215 116.104C259.302 113.945 259.92 111.783 260.389 109.679C260.945 107.186 261.17 104.566 261.579 102.037C262.242 97.941 263.529 94.0289 264.381 89.9784C266.136 81.6286 267.594 70.8972 274.949 65.4319C275.912 64.7168 276.969 64.1889 278.01 63.6004C278.599 63.2673 279.474 62.4053 280.148 62.2549C280.883 62.0907 281.19 62.2183 281.488 63.0717C281.904 64.2613 281.144 64.817 280.434 65.681C277.977 68.6709 276.928 72.5037 275.411 76.0103C271.937 84.0398 270.401 92.5088 270.383 101.188C270.374 105.732 270.06 110.114 269.576 114.63C269.054 119.49 268.368 124.63 266.891 129.306C268.372 129.638 269.979 129.143 270.381 130.864C270.48 131.287 270.301 131.787 270.41 132.338C270.516 132.873 270.772 133.405 270.923 133.931C271.235 135.019 271.4 136.093 271.552 137.21C272.139 141.529 273.147 145.637 273.255 150.016C273.353 154.063 272.561 158.164 271.831 162.134C271.095 166.133 268.986 169.541 267.325 173.157C268.04 173.157 268.754 173.165 269.469 173.172Z" fill="black"/>
<path fill-rule="evenodd" clip-rule="evenodd" d="M175.469 163.979C174.682 164.202 170.879 164.622 170.88 165.816C170.88 166.531 174.678 166.517 175.35 166.595C175.39 165.723 175.429 164.851 175.469 163.979ZM183.863 172.213C186.054 172.63 189.028 172.044 190.429 170.112C191.084 169.209 191.394 167.837 191.608 166.759C191.811 165.733 192.439 163.171 192.012 162.208C191.487 161.027 186.452 162.262 184.986 162.397C182.428 162.633 179.783 162.661 177.224 162.494C177.224 165.137 177.088 167.713 178.643 169.988C179.764 171.629 181.87 172.017 183.863 172.213ZM183.422 175.478C181.041 174.606 178.542 175.173 176.991 172.616C176.598 171.968 176.267 171.271 176.029 170.55C175.912 170.235 175.822 169.912 175.758 169.581C175.879 168.868 175.618 168.667 174.975 168.978C173.713 168.732 172.329 169.599 171 169.343C167.776 168.724 168.361 164.106 170.525 162.507C170.952 162.191 171.379 162.103 171.868 161.947C172.947 161.604 173.531 161.987 174.517 161.89C175.314 161.811 175.533 160.975 176.39 160.607C176.951 160.366 177.73 160.385 178.319 160.36C181.405 160.234 184.501 160.235 187.607 160.034C189.056 159.94 190.62 160.169 192.039 159.922C192.703 159.806 192.608 159.363 193.237 159.751C193.888 160.153 193.607 161.639 193.574 162.231C193.384 165.656 193.18 169.329 191.345 172.324C189.666 175.064 186.363 175.344 183.422 175.478Z" fill="black"/>
<path fill-rule="evenodd" clip-rule="evenodd" d="M57.6801 176.421C58.4461 176.413 59.2119 176.405 59.9753 176.397C59.2083 176.405 58.4442 176.413 57.6801 176.421Z" fill="black"/>
<path fill-rule="evenodd" clip-rule="evenodd" d="M270.388 103.393C270.386 102.657 270.385 101.921 270.383 101.187C270.384 101.923 270.386 102.658 270.388 103.393Z" fill="black"/>
<path fill-rule="evenodd" clip-rule="evenodd" d="M75.5284 106.415C75.526 107.131 75.5236 107.848 75.5213 108.563C75.5234 107.846 75.5258 107.13 75.5284 106.415Z" fill="black"/>
<path fill-rule="evenodd" clip-rule="evenodd" d="M139.203 175.609C139.812 175.61 140.422 175.61 141.028 175.612C140.418 175.611 139.811 175.61 139.203 175.609Z" fill="black"/>
<path fill-rule="evenodd" clip-rule="evenodd" d="M102.199 175.463C102.808 175.465 103.417 175.466 104.024 175.469C103.413 175.467 102.806 175.465 102.199 175.463Z" fill="black"/>
<path fill-rule="evenodd" clip-rule="evenodd" d="M235.442 145.694C235.416 146.178 235.389 146.661 235.362 147.144C235.389 146.66 235.416 146.177 235.442 145.694Z" fill="black"/>
<path fill-rule="evenodd" clip-rule="evenodd" d="M269.469 173.171C268.998 173.166 268.527 173.161 268.056 173.156C268.53 172.959 269 172.967 269.469 173.171Z" fill="black"/>
<path fill-rule="evenodd" clip-rule="evenodd" d="M227.656 175.313C227.994 175.308 228.332 175.302 228.667 175.297C228.328 175.302 227.992 175.307 227.656 175.313Z" fill="black"/>
<path fill-rule="evenodd" clip-rule="evenodd" d="M270.204 109.363C270.212 108.997 270.221 108.632 270.229 108.267C270.221 108.633 270.212 108.998 270.204 109.363Z" fill="black"/>
<path fill-rule="evenodd" clip-rule="evenodd" d="M238.594 63.1033C238.566 62.7261 238.538 62.3492 238.51 61.973C238.538 62.3504 238.566 62.7269 238.594 63.1033Z" fill="black"/>
<path fill-rule="evenodd" clip-rule="evenodd" d="M270.371 104.833C270.375 104.455 270.38 104.077 270.385 103.7C270.38 104.079 270.375 104.456 270.371 104.833Z" fill="black"/>
<path fill-rule="evenodd" clip-rule="evenodd" d="M164.072 174.844C164.373 174.849 164.673 174.853 164.971 174.857C164.67 174.852 164.371 174.848 164.072 174.844Z" fill="black"/>
<path fill-rule="evenodd" clip-rule="evenodd" d="M241.486 175.461C241.78 175.466 242.074 175.472 242.365 175.478C242.07 175.473 241.778 175.467 241.486 175.461Z" fill="black"/>
<path fill-rule="evenodd" clip-rule="evenodd" d="M273.221 148.877C273.2 148.545 273.178 148.213 273.158 147.882C273.179 148.214 273.2 148.545 273.221 148.877Z" fill="black"/>
<path fill-rule="evenodd" clip-rule="evenodd" d="M267.947 175.783C268.186 175.781 268.425 175.78 268.661 175.78C268.421 175.781 268.184 175.782 267.947 175.783Z" fill="black"/>
<path fill-rule="evenodd" clip-rule="evenodd" d="M235.364 175.476C235.6 175.47 235.837 175.464 236.072 175.459C235.834 175.464 235.599 175.47 235.364 175.476Z" fill="black"/>
<path fill-rule="evenodd" clip-rule="evenodd" d="M182.132 175.295C182.393 175.293 182.653 175.292 182.911 175.29C182.65 175.292 182.391 175.293 182.132 175.295Z" fill="black"/>
<path fill-rule="evenodd" clip-rule="evenodd" d="M122.017 175.294C122.265 175.296 122.513 175.297 122.758 175.3C122.51 175.298 122.264 175.296 122.017 175.294Z" fill="black"/>
<path fill-rule="evenodd" clip-rule="evenodd" d="M107.394 175.334C107.646 175.32 107.899 175.305 108.149 175.292C107.896 175.306 107.645 175.32 107.394 175.334Z" fill="black"/>
<path fill-rule="evenodd" clip-rule="evenodd" d="M177.407 79.0454C177.031 79.0131 176.655 78.9807 176.279 78.9481C176.655 78.9745 177.053 78.7518 177.407 79.0454Z" fill="black"/>
<path fill-rule="evenodd" clip-rule="evenodd" d="M273.256 173.314C272.886 173.276 272.515 173.239 272.144 173.201C272.515 173.239 272.886 173.276 273.256 173.314Z" fill="black"/>
<path fill-rule="evenodd" clip-rule="evenodd" d="M247.395 81.3283C247.371 81.6531 247.345 81.9782 247.321 82.3021C247.346 81.9768 247.371 81.6524 247.395 81.3283Z" fill="black"/>
<path fill-rule="evenodd" clip-rule="evenodd" d="M270.464 94.8719C270.49 94.5639 270.515 94.256 270.54 93.9492C270.515 94.2577 270.489 94.5646 270.464 94.8719Z" fill="black"/>
<path fill-rule="evenodd" clip-rule="evenodd" d="M247.248 86.3672C247.221 86.6915 247.194 87.0157 247.168 87.3388C247.194 87.0142 247.221 86.6906 247.248 86.3672Z" fill="black"/>
<path fill-rule="evenodd" clip-rule="evenodd" d="M270.307 107.303C270.305 106.99 270.302 106.676 270.3 106.364C270.503 106.676 270.494 106.989 270.307 107.303Z" fill="black"/>
<path fill-rule="evenodd" clip-rule="evenodd" d="M235.448 152.312C235.445 152.626 235.442 152.94 235.439 153.253C235.231 152.936 235.273 152.623 235.448 152.312Z" fill="black"/>
<path fill-rule="evenodd" clip-rule="evenodd" d="M259.079 115.968C259.043 115.65 259.007 115.331 258.97 115.014C259.007 115.333 259.043 115.65 259.079 115.968Z" fill="black"/>
<path fill-rule="evenodd" clip-rule="evenodd" d="M63.4017 86.785C63.1558 87.1099 62.821 86.8874 62.5288 86.9269C62.8201 86.8795 63.1109 86.8324 63.4017 86.785Z" fill="black"/>
<path fill-rule="evenodd" clip-rule="evenodd" d="M184.957 160.259C184.646 160.259 184.336 160.26 184.025 160.26C184.336 160.26 184.646 160.259 184.957 160.259Z" fill="black"/>
<path fill-rule="evenodd" clip-rule="evenodd" d="M234.574 88.1196C234.603 88.3838 234.631 88.6479 234.66 88.9111C234.631 88.6465 234.603 88.383 234.574 88.1196Z" fill="black"/>
<path fill-rule="evenodd" clip-rule="evenodd" d="M81.0931 61.8852C80.7809 61.8914 80.4687 61.8975 80.1565 61.9037C80.4654 61.7219 80.7766 61.6693 81.0931 61.8852Z" fill="black"/>
<path fill-rule="evenodd" clip-rule="evenodd" d="M247.24 90.9365C247.22 91.2135 247.2 91.4903 247.18 91.7661C247.2 91.4891 247.22 91.2128 247.24 90.9365Z" fill="black"/>
<path fill-rule="evenodd" clip-rule="evenodd" d="M238.678 56.9344C238.702 56.6819 238.726 56.4294 238.75 56.1783C238.726 56.4313 238.702 56.6828 238.678 56.9344Z" fill="black"/>
<path fill-rule="evenodd" clip-rule="evenodd" d="M236.224 56.1433C236.2 56.4172 236.175 56.6914 236.151 56.9643C236.176 56.69 236.2 56.4165 236.224 56.1433Z" fill="black"/>
<path fill-rule="evenodd" clip-rule="evenodd" d="M100.605 37.8451C100.287 37.8836 99.9695 37.9222 99.652 37.9605C99.9697 37.9219 100.287 37.8836 100.605 37.8451Z" fill="black"/>
<path fill-rule="evenodd" clip-rule="evenodd" d="M77.6585 62.1031C77.3325 62.1365 77.0064 62.1698 76.6807 62.2031C77.0067 62.1698 77.3327 62.1365 77.6585 62.1031Z" fill="black"/>
<path fill-rule="evenodd" clip-rule="evenodd" d="M256.313 62.9061C256.333 62.6512 256.353 62.3961 256.373 62.1426C256.353 62.3977 256.333 62.6519 256.313 62.9061Z" fill="black"/>
<path fill-rule="evenodd" clip-rule="evenodd" d="M66.9578 104.969C67.1455 104.972 67.3331 104.975 67.518 104.978C67.3295 104.975 67.1436 104.972 66.9578 104.969Z" fill="black"/>
<path fill-rule="evenodd" clip-rule="evenodd" d="M236.234 136.426C236.215 136.708 236.196 136.99 236.177 137.272C236.197 136.99 236.215 136.708 236.234 136.426Z" fill="black"/>
<path fill-rule="evenodd" clip-rule="evenodd" d="M255.387 81.5013C255.38 81.2293 255.372 80.9576 255.365 80.6863C255.373 80.9585 255.38 81.2298 255.387 81.5013Z" fill="black"/>
<path fill-rule="evenodd" clip-rule="evenodd" d="M108.602 37.2015C108.313 37.2015 108.023 37.2017 107.734 37.2017C108.023 37.0028 108.313 37.0078 108.602 37.2015Z" fill="black"/>
<path fill-rule="evenodd" clip-rule="evenodd" d="M185.922 101.222C185.605 101.23 185.288 101.238 184.971 101.246C185.283 101.026 185.6 101.02 185.922 101.222Z" fill="black"/>
<path fill-rule="evenodd" clip-rule="evenodd" d="M213.644 174.833C213.832 174.837 214.02 174.841 214.206 174.845C214.017 174.842 213.83 174.837 213.644 174.833Z" fill="black"/>
<path fill-rule="evenodd" clip-rule="evenodd" d="M220.725 175.163C220.913 175.157 221.101 175.15 221.286 175.144C221.097 175.15 220.911 175.157 220.725 175.163Z" fill="black"/>
<path fill-rule="evenodd" clip-rule="evenodd" d="M109.902 175.294C110.098 175.299 110.294 175.304 110.487 175.309C110.29 175.304 110.096 175.299 109.902 175.294Z" fill="black"/>
<path fill-rule="evenodd" clip-rule="evenodd" d="M273.058 145.729C273.03 145.461 273.002 145.191 272.974 144.924C273.002 145.193 273.03 145.461 273.058 145.729Z" fill="black"/>
<path fill-rule="evenodd" clip-rule="evenodd" d="M247.48 100.396C247.502 100.652 247.524 100.909 247.546 101.163C247.524 100.907 247.502 100.651 247.48 100.396Z" fill="black"/>
<path fill-rule="evenodd" clip-rule="evenodd" d="M257.323 95.9956C257.293 95.7238 257.262 95.4521 257.232 95.1812C257.263 95.4532 257.293 95.7243 257.323 95.9956Z" fill="black"/>
<path fill-rule="evenodd" clip-rule="evenodd" d="M111.491 175.456C111.688 175.453 111.886 175.45 112.082 175.447C111.883 175.451 111.687 175.453 111.491 175.456Z" fill="black"/>
<path fill-rule="evenodd" clip-rule="evenodd" d="M183.422 175.477C183.615 175.469 183.806 175.46 183.996 175.452C183.804 175.46 183.613 175.469 183.422 175.477Z" fill="black"/>
<path fill-rule="evenodd" clip-rule="evenodd" d="M255.717 76.1512C255.708 75.8759 255.699 75.6005 255.691 75.3257C255.699 75.6012 255.708 75.8761 255.717 76.1512Z" fill="black"/>
<path fill-rule="evenodd" clip-rule="evenodd" d="M92.7617 175.636C92.9545 175.635 93.147 175.633 93.3372 175.632C93.1434 175.633 92.9528 175.635 92.7617 175.636Z" fill="black"/>
<path fill-rule="evenodd" clip-rule="evenodd" d="M255.636 175.633C255.834 175.635 256.032 175.637 256.228 175.639C256.029 175.637 255.832 175.635 255.636 175.633Z" fill="black"/>
<path fill-rule="evenodd" clip-rule="evenodd" d="M259.914 175.61C260.105 175.623 260.296 175.637 260.485 175.65C260.293 175.636 260.103 175.623 259.914 175.61Z" fill="black"/>
<path fill-rule="evenodd" clip-rule="evenodd" d="M261.641 175.606C261.836 175.612 262.031 175.618 262.223 175.622C262.028 175.616 261.835 175.611 261.641 175.606Z" fill="black"/>
<path fill-rule="evenodd" clip-rule="evenodd" d="M270.512 97.0872C270.499 96.8164 270.486 96.5453 270.474 96.2752C270.487 96.5465 270.499 96.8168 270.512 97.0872Z" fill="black"/>
<path fill-rule="evenodd" clip-rule="evenodd" d="M139.785 172.056C140.377 172.025 140.97 171.995 141.563 171.964C140.97 171.995 140.377 172.025 139.785 172.056Z" fill="black"/>
<path fill-rule="evenodd" clip-rule="evenodd" d="M104.044 73.5837C104.558 73.6284 105.073 73.6732 105.586 73.7175C105.072 73.6729 104.558 73.6282 104.044 73.5837Z" fill="black"/>
<path fill-rule="evenodd" clip-rule="evenodd" d="M249.243 95.9418C249.259 96.4325 249.275 96.9232 249.291 97.4125C249.275 96.9215 249.259 96.4318 249.243 95.9418Z" fill="black"/>
<path fill-rule="evenodd" clip-rule="evenodd" d="M259.856 172.896C260.393 172.928 260.93 172.961 261.466 172.993C260.926 173.018 260.378 173.172 259.856 172.896Z" fill="black"/>
<path fill-rule="evenodd" clip-rule="evenodd" d="M256.679 114.852C256.683 114.384 256.687 113.916 256.691 113.449C256.687 113.918 256.683 114.385 256.679 114.852Z" fill="black"/>
<path fill-rule="evenodd" clip-rule="evenodd" d="M255.305 129.559C255.776 129.566 256.247 129.572 256.718 129.578C256.247 129.572 255.776 129.566 255.305 129.559Z" fill="black"/>
<path fill-rule="evenodd" clip-rule="evenodd" d="M136.727 121.33C136.715 121.687 136.703 122.043 136.692 122.399C136.704 122.041 136.715 121.686 136.727 121.33Z" fill="black"/>
<path fill-rule="evenodd" clip-rule="evenodd" d="M263.145 106.225C263.125 106.58 263.106 106.935 263.087 107.288C263.107 106.932 263.126 106.578 263.145 106.225Z" fill="black"/>
<path fill-rule="evenodd" clip-rule="evenodd" d="M253.095 171.316C253.438 171.293 253.781 171.27 254.123 171.248C253.865 171.454 253.606 171.471 253.095 171.316Z" fill="black"/>
<path fill-rule="evenodd" clip-rule="evenodd" d="M250.802 124.912C250.825 125.294 250.849 125.677 250.872 126.058C250.849 125.675 250.825 125.293 250.802 124.912Z" fill="black"/>
<path fill-rule="evenodd" clip-rule="evenodd" d="M122.673 64.5129C122.677 64.1433 122.68 63.7737 122.684 63.4056C122.681 63.7756 122.677 64.1442 122.673 64.5129Z" fill="black"/>
<path fill-rule="evenodd" clip-rule="evenodd" d="M251.217 129.636L252.494 129.609C252.072 129.812 251.647 129.819 251.217 129.636Z" fill="black"/>
<path fill-rule="evenodd" clip-rule="evenodd" d="M263 132.364C262.699 132.367 262.398 132.369 262.099 132.372C262.401 132.37 262.7 132.367 263 132.364Z" fill="black"/>
<path fill-rule="evenodd" clip-rule="evenodd" d="M152.706 171.463C153.123 171.468 153.54 171.474 153.957 171.479C153.537 171.69 153.119 171.72 152.706 171.463Z" fill="black"/>
<path fill-rule="evenodd" clip-rule="evenodd" d="M74.1674 172.692C74.5905 172.654 75.0139 172.616 75.437 172.578C75.0139 172.616 74.5905 172.654 74.1674 172.692Z" fill="black"/>
<path fill-rule="evenodd" clip-rule="evenodd" d="M249.39 99.0933C249.41 99.4774 249.431 99.8615 249.452 100.244C249.431 99.8598 249.41 99.4767 249.39 99.0933Z" fill="black"/>
<path fill-rule="evenodd" clip-rule="evenodd" d="M114.33 74.4854C114.687 74.3095 115.046 74.28 115.409 74.4663C115.049 74.4728 114.69 74.4792 114.33 74.4854Z" fill="black"/>
<path fill-rule="evenodd" clip-rule="evenodd" d="M237.721 103.528C237.751 103.852 237.78 104.176 237.81 104.499C237.78 104.175 237.751 103.852 237.721 103.528Z" fill="black"/>
<path fill-rule="evenodd" clip-rule="evenodd" d="M267.855 95.9687C267.672 95.6517 267.678 95.3364 267.864 95.0239C267.861 95.3393 267.858 95.6541 267.855 95.9687Z" fill="black"/>
<path fill-rule="evenodd" clip-rule="evenodd" d="M249.448 84.9648C249.448 85.2853 249.449 85.6061 249.449 85.9257C249.448 85.6045 249.448 85.2846 249.448 84.9648Z" fill="black"/>
<path fill-rule="evenodd" clip-rule="evenodd" d="M262.236 129.406C262.603 129.294 262.97 129.134 263.335 129.41C262.969 129.409 262.602 129.407 262.236 129.406Z" fill="black"/>
<path fill-rule="evenodd" clip-rule="evenodd" d="M143.581 171.912C143.95 171.877 144.32 171.843 144.689 171.808C144.32 171.843 143.95 171.877 143.581 171.912Z" fill="black"/>
<path fill-rule="evenodd" clip-rule="evenodd" d="M92.9293 171.912C93.2677 171.764 93.6053 171.685 93.9387 171.924C93.602 171.92 93.2658 171.916 92.9293 171.912Z" fill="black"/>
<path fill-rule="evenodd" clip-rule="evenodd" d="M162.147 171.435C162.509 171.277 162.87 171.19 163.227 171.446C162.867 171.442 162.507 171.439 162.147 171.435Z" fill="black"/>
<path fill-rule="evenodd" clip-rule="evenodd" d="M81.5958 124.62C81.6229 124.946 81.6503 125.273 81.6772 125.599C81.6498 125.272 81.6227 124.946 81.5958 124.62Z" fill="black"/>
<path fill-rule="evenodd" clip-rule="evenodd" d="M165.606 105.8C165.962 105.67 166.317 105.603 166.667 105.819C166.313 105.812 165.96 105.806 165.606 105.8Z" fill="black"/>
<path fill-rule="evenodd" clip-rule="evenodd" d="M249.384 115.526C249.404 115.845 249.424 116.164 249.443 116.483C249.424 116.163 249.404 115.845 249.384 115.526Z" fill="black"/>
<path fill-rule="evenodd" clip-rule="evenodd" d="M81.3656 86.7089C81.3361 86.9661 81.3066 87.2236 81.2773 87.4795C81.3068 87.2217 81.3361 86.9654 81.3656 86.7089Z" fill="black"/>
<path fill-rule="evenodd" clip-rule="evenodd" d="M60.7304 161.312C60.7121 161.562 60.694 161.812 60.6759 162.061C60.6947 161.811 60.7126 161.561 60.7304 161.312Z" fill="black"/>
<path fill-rule="evenodd" clip-rule="evenodd" d="M256.837 117.216C256.817 116.957 256.797 116.698 256.777 116.44C256.797 116.7 256.817 116.958 256.837 117.216Z" fill="black"/>
<path fill-rule="evenodd" clip-rule="evenodd" d="M230.91 170.952C231.227 170.954 231.544 170.956 231.861 170.958C231.544 170.956 231.227 170.954 230.91 170.952Z" fill="black"/>
<path fill-rule="evenodd" clip-rule="evenodd" d="M136.606 123.533C136.666 123.722 136.725 123.91 136.784 124.099C136.389 124.195 136.329 124.006 136.606 123.533Z" fill="black"/>
<path fill-rule="evenodd" clip-rule="evenodd" d="M160.392 105.374C160.715 105.372 161.037 105.371 161.359 105.37C161.037 105.522 160.715 105.627 160.392 105.374Z" fill="black"/>
<path fill-rule="evenodd" clip-rule="evenodd" d="M81.7764 126.166C81.7873 126.452 81.7982 126.738 81.8087 127.022C81.7975 126.737 81.7868 126.451 81.7764 126.166Z" fill="black"/>
<path fill-rule="evenodd" clip-rule="evenodd" d="M85.1851 172.225C85.4961 172.224 85.8069 172.224 86.118 172.224C85.8067 172.224 85.4961 172.224 85.1851 172.225Z" fill="black"/>
<path fill-rule="evenodd" clip-rule="evenodd" d="M238.503 129.177C238.515 129.44 238.527 129.703 238.538 129.965C238.527 129.701 238.515 129.439 238.503 129.177Z" fill="black"/>
<path fill-rule="evenodd" clip-rule="evenodd" d="M78.5823 172.545C78.8881 172.342 79.1946 172.36 79.5016 172.542C79.1951 172.543 78.8886 172.544 78.5823 172.545Z" fill="black"/>
<path fill-rule="evenodd" clip-rule="evenodd" d="M86.6349 83.0353C86.6513 83.3037 86.668 83.5724 86.6851 83.8392C86.6687 83.5702 86.6518 83.3028 86.6349 83.0353Z" fill="black"/>
<path fill-rule="evenodd" clip-rule="evenodd" d="M76.9912 172.573C77.3091 172.574 77.627 172.576 77.9447 172.577C77.6259 172.794 77.3082 172.804 76.9912 172.573Z" fill="black"/>
<path fill-rule="evenodd" clip-rule="evenodd" d="M253.041 78.8215C253.044 78.5488 253.046 78.2763 253.049 78.0043C253.046 78.2773 253.044 78.5493 253.041 78.8215Z" fill="black"/>
<path fill-rule="evenodd" clip-rule="evenodd" d="M107.08 74.0525C107.385 74.0923 107.689 74.132 107.993 74.1715C107.688 74.1318 107.384 74.0923 107.08 74.0525Z" fill="black"/>
<path fill-rule="evenodd" clip-rule="evenodd" d="M80.2426 97.5879C80.2467 97.8425 80.2507 98.0974 80.2555 98.3508C80.2514 98.0957 80.2472 97.8418 80.2426 97.5879Z" fill="black"/>
<path fill-rule="evenodd" clip-rule="evenodd" d="M255.089 97.5512C255.072 97.2918 255.055 97.0324 255.039 96.7742C255.055 97.0341 255.072 97.2928 255.089 97.5512Z" fill="black"/>
<path fill-rule="evenodd" clip-rule="evenodd" d="M184.156 172.269C184.531 172.303 184.906 172.337 185.281 172.371C184.906 172.337 184.531 172.303 184.156 172.269Z" fill="black"/>
<path fill-rule="evenodd" clip-rule="evenodd" d="M182.902 162.554C182.699 162.557 182.496 162.56 182.295 162.565C182.499 162.562 182.7 162.558 182.902 162.554Z" fill="black"/>
<path fill-rule="evenodd" clip-rule="evenodd" d="M182.919 172.12C183.233 172.151 183.548 172.182 183.863 172.213C183.548 172.182 183.233 172.151 182.919 172.12Z" fill="black"/>
<path fill-rule="evenodd" clip-rule="evenodd" d="M126.276 150.924C126.686 153.238 123.089 155.501 122.804 152.212C122.7 151.009 123.504 150.163 124.405 149.428C125.683 148.384 126.398 149.384 126.276 150.924Z" fill="black"/>
<path fill-rule="evenodd" clip-rule="evenodd" d="M86.6361 122.692C87.4832 123.038 93.9559 125.148 90.5938 126.208C89.7038 126.489 88.3585 126.531 87.587 126.036C86.6589 125.441 85.7227 123.684 86.6361 122.692Z" fill="black"/>
<path fill-rule="evenodd" clip-rule="evenodd" d="M88.229 91.3544C90.426 91.0993 92.4502 94.7077 89.7416 94.5906C87.77 94.5052 85.1185 91.3544 88.229 91.3544Z" fill="black"/>
<path fill-rule="evenodd" clip-rule="evenodd" d="M96.0881 100.202C97.9227 101.802 94.5223 105.385 93.1722 103.998C92.4828 103.29 93.1187 101.764 93.6877 101.172C94.2717 100.564 95.3107 100.45 96.0881 100.202Z" fill="black"/>
<path fill-rule="evenodd" clip-rule="evenodd" d="M101.55 141.697C100.467 141.869 95.7038 143.425 96.6971 140.598C97.0759 139.52 98.1326 139.84 99.0985 139.89C100.655 139.969 101.55 139.895 101.55 141.697Z" fill="black"/>
<path fill-rule="evenodd" clip-rule="evenodd" d="M98.4124 148.978C100.034 149.846 97.6637 154.7 96.3199 153.667C94.4554 152.234 97.0055 149.414 98.4124 148.978Z" fill="black"/>
<path fill-rule="evenodd" clip-rule="evenodd" d="M105.484 145.076C106.272 144.754 109.988 148.329 108.574 149.324C107.849 149.833 106.475 148.959 106.038 148.433C105.218 147.445 105.144 146.226 105.484 145.076Z" fill="black"/>
<path fill-rule="evenodd" clip-rule="evenodd" d="M84.0414 115.857C84.8472 115.989 86.2384 116.031 86.2905 117.163C86.3362 118.158 85.0885 118.481 84.2101 118.559C83.2987 118.64 82.0922 118.382 82.0748 117.237C82.0565 116 84.0129 116.075 84.0414 115.857Z" fill="black"/>
<path fill-rule="evenodd" clip-rule="evenodd" d="M103.912 165.13C104.77 165.65 108.773 167.526 107.057 168.881C106.415 169.388 104.468 168.341 104.03 167.809C103.507 167.173 102.997 165.685 103.912 165.13Z" fill="black"/>
<path fill-rule="evenodd" clip-rule="evenodd" d="M115.039 151.519C114.915 149.449 118.408 148.624 117.684 151.563C117.48 152.392 117.282 153.649 116.258 153.698C115.047 153.754 115.003 152.322 115.039 151.519Z" fill="black"/>
<path fill-rule="evenodd" clip-rule="evenodd" d="M104.249 115.516C104.273 117.086 101.264 118.471 101.24 115.982C101.22 113.757 104.361 113.106 104.249 115.516Z" fill="black"/>
<path fill-rule="evenodd" clip-rule="evenodd" d="M102.261 107.336C103.003 107.575 103.988 107.698 104.054 108.64C104.123 109.637 103.197 110.081 102.363 110.025C101.68 109.979 100.668 109.473 100.544 108.731C100.362 107.643 101.424 107.572 102.261 107.336Z" fill="black"/>
<path fill-rule="evenodd" clip-rule="evenodd" d="M88.4727 136.091C88.4601 134.795 91.0573 133.237 91.5357 134.741C91.6887 135.222 90.4646 137.38 90.0574 137.542C88.9801 137.969 88.8297 136.973 88.4727 136.091Z" fill="black"/>
<path fill-rule="evenodd" clip-rule="evenodd" d="M109.756 157.661C108.878 158.447 106.246 160.654 106.442 157.691C106.568 155.799 109.987 155.898 109.756 157.661Z" fill="black"/>
<path fill-rule="evenodd" clip-rule="evenodd" d="M152.649 166.128C152.937 164.882 157.056 167.043 155.681 168.616C155.22 169.144 154.014 168.667 153.55 168.354C152.632 167.734 152.612 167.162 152.649 166.128Z" fill="black"/>
<path fill-rule="evenodd" clip-rule="evenodd" d="M129.7 139.466C129.861 138.911 130.039 137.929 130.569 137.574C131.527 136.933 132.362 137.9 132.362 138.92C132.362 140.821 130.198 141.421 129.7 139.466Z" fill="black"/>
<path fill-rule="evenodd" clip-rule="evenodd" d="M119.492 161.697C120.561 161.942 122.942 164.542 121.561 165.602C120.232 166.623 118.465 162.474 119.492 161.697Z" fill="black"/>
<path fill-rule="evenodd" clip-rule="evenodd" d="M120.51 142.019C121.885 142.129 123.775 144.356 121.637 144.71C119.966 144.987 118.021 142.565 120.51 142.019Z" fill="black"/>
<path fill-rule="evenodd" clip-rule="evenodd" d="M132.958 152.266C133.303 151.104 136.713 152.349 136.521 153.628C136.42 154.308 135.025 154.467 134.292 154.288C133.213 154.023 132.933 153.315 132.958 152.266Z" fill="black"/>
<path fill-rule="evenodd" clip-rule="evenodd" d="M92.7603 87.3928C92.785 85.8912 95.6705 85.2791 95.8818 86.7924C96.0729 88.1596 92.7241 89.6143 92.7603 87.3928Z" fill="black"/>
<path fill-rule="evenodd" clip-rule="evenodd" d="M132.005 167.739C132.213 166.984 132.302 166.075 133.246 165.975C134.326 165.861 134.294 166.689 134.167 167.548C133.821 169.882 132.502 169.999 132.005 167.739Z" fill="black"/>
<path fill-rule="evenodd" clip-rule="evenodd" d="M86.4385 105.259C84.9343 105.598 82.1793 102.701 83.8632 102.079C85.0497 101.641 86.4385 104.385 86.4385 105.259Z" fill="black"/>
<path fill-rule="evenodd" clip-rule="evenodd" d="M105.624 127.762C104.859 128.123 104.683 128.342 104.095 127.75C103.582 127.235 103.605 125.799 104.045 125.263C105.728 123.211 105.688 126.932 105.624 127.762Z" fill="black"/>
<path fill-rule="evenodd" clip-rule="evenodd" d="M111.87 123.6C112.669 123.702 115.041 125.952 113.806 126.846C112.292 127.942 111.436 124.51 111.87 123.6Z" fill="black"/>
<path fill-rule="evenodd" clip-rule="evenodd" d="M129.144 124.193C128.564 126.427 127.115 124.924 127.197 123.233C127.329 120.524 128.83 122.883 129.144 124.193Z" fill="black"/>
<path fill-rule="evenodd" clip-rule="evenodd" d="M137.952 160.085C138.934 160.491 140.267 164.245 138.864 164.446C137.289 164.672 137.814 160.867 137.952 160.085Z" fill="black"/>
<path fill-rule="evenodd" clip-rule="evenodd" d="M125.691 157.977C126.814 157.597 127.226 159.967 126.573 160.408C125.136 161.376 125.439 158.536 125.691 157.977Z" fill="black"/>
<path fill-rule="evenodd" clip-rule="evenodd" d="M115.039 151.519C115.025 151.833 115.011 152.148 114.996 152.461C115.01 152.146 115.024 151.832 115.039 151.519Z" fill="black"/>
<path fill-rule="evenodd" clip-rule="evenodd" d="M152.649 166.128C152.637 166.451 152.626 166.773 152.614 167.094C152.625 166.771 152.637 166.449 152.649 166.128Z" fill="black"/>
<path fill-rule="evenodd" clip-rule="evenodd" d="M132.958 152.266C132.952 152.54 132.945 152.813 132.938 153.085C132.944 152.811 132.951 152.538 132.958 152.266Z" fill="black"/>
<path fill-rule="evenodd" clip-rule="evenodd" d="M257.227 147.556C259.556 147.481 262.155 146.605 264.444 146.884C265.074 146.96 266.524 147.119 265.515 148.054C265.032 148.501 262.721 148.27 262.021 148.418C257.744 149.323 252.89 149.907 248.504 149.832C246.452 149.797 244.384 149.632 242.332 149.524C240.282 149.415 240.08 148.582 242.387 148.317C244.783 148.042 247.242 148.144 249.65 148.141C252.182 148.138 254.701 147.725 257.227 147.556Z" fill="black"/>
<path fill-rule="evenodd" clip-rule="evenodd" d="M262.341 141.944C262.117 142.583 261.92 144.047 261.061 144.144C259.858 144.278 259.658 142.212 259.703 141.457C259.756 140.545 260.085 139.03 261.218 139.346C262.175 139.612 262.271 141.214 262.341 141.944Z" fill="black"/>
<path fill-rule="evenodd" clip-rule="evenodd" d="M255.057 141.477C255.233 140.793 255.319 139.252 256.286 139.2C257.366 139.142 257.675 140.747 257.667 141.517C257.66 142.247 257.39 143.627 256.53 143.795C255.364 144.024 255.259 142.258 255.057 141.477Z" fill="black"/>
<path fill-rule="evenodd" clip-rule="evenodd" d="M242.926 142.703C242.576 143.524 242.344 144.656 241.261 144.096C240.423 143.663 240.306 141.916 240.464 141.116C240.628 140.287 240.975 139.337 241.927 139.709C243.025 140.139 242.914 141.798 242.926 142.703Z" fill="black"/>
<path fill-rule="evenodd" clip-rule="evenodd" d="M252.112 141.944C251.08 145.074 249.196 142.957 249.911 140.62C250.659 138.177 252.017 140.549 252.112 141.944Z" fill="black"/>
<path fill-rule="evenodd" clip-rule="evenodd" d="M247.081 142.099C246.794 142.65 246.489 143.839 245.716 143.714C244.769 143.56 244.738 141.737 244.842 141.058C244.933 140.463 245.2 139.472 245.993 139.485C247.139 139.504 247.062 141.386 247.081 142.099Z" fill="black"/>
<path fill-rule="evenodd" clip-rule="evenodd" d="M267.678 142.7C266.91 144.425 265.852 142.939 266.191 141.714C266.693 139.898 267.635 141.507 267.678 142.7Z" fill="black"/>
<path fill-rule="evenodd" clip-rule="evenodd" d="M248.854 148.143C248.014 148.14 247.175 148.137 246.335 148.134C247.175 147.975 248.015 147.914 248.854 148.143Z" fill="black"/>
<path fill-rule="evenodd" clip-rule="evenodd" d="M265.536 146.877C264.808 146.881 264.08 146.886 263.352 146.891C264.079 146.673 264.807 146.668 265.536 146.877Z" fill="black"/>
<path fill-rule="evenodd" clip-rule="evenodd" d="M257.227 147.556C256.644 147.595 256.062 147.634 255.479 147.673C256.062 147.634 256.645 147.595 257.227 147.556Z" fill="black"/>
<path fill-rule="evenodd" clip-rule="evenodd" d="M242.926 142.703C242.92 142.285 242.915 141.866 242.91 141.449C243.125 141.865 243.11 142.283 242.926 142.703Z" fill="black"/>
<path fill-rule="evenodd" clip-rule="evenodd" d="M247.494 149.823C247.832 149.826 248.169 149.829 248.505 149.832C248.166 149.829 247.83 149.826 247.494 149.823Z" fill="black"/>
<path fill-rule="evenodd" clip-rule="evenodd" d="M241.819 149.524C242.161 149.524 242.504 149.523 242.843 149.524C242.5 149.524 242.159 149.524 241.819 149.524Z" fill="black"/>
<path fill-rule="evenodd" clip-rule="evenodd" d="M244.625 148.179C244.149 148.218 243.673 148.257 243.197 148.296C243.673 148.257 244.149 148.218 244.625 148.179Z" fill="black"/>
<path fill-rule="evenodd" clip-rule="evenodd" d="M251.06 148.138C250.59 148.139 250.12 148.14 249.65 148.141C250.12 147.943 250.59 147.937 251.06 148.138Z" fill="black"/>
<path fill-rule="evenodd" clip-rule="evenodd" d="M247.081 142.099C247.07 141.663 247.058 141.227 247.047 140.792C247.059 141.228 247.07 141.664 247.081 142.099Z" fill="black"/>
<path fill-rule="evenodd" clip-rule="evenodd" d="M240.465 141.116C240.462 141.541 240.459 141.966 240.456 142.39C240.459 141.964 240.461 141.54 240.465 141.116Z" fill="black"/>
<path fill-rule="evenodd" clip-rule="evenodd" d="M259.897 147.398C259.482 147.436 259.067 147.473 258.652 147.51C259.067 147.473 259.482 147.436 259.897 147.398Z" fill="black"/>
<path fill-rule="evenodd" clip-rule="evenodd" d="M267.678 142.7C267.665 142.329 267.651 141.957 267.638 141.586C267.652 141.958 267.665 142.329 267.678 142.7Z" fill="black"/>
<path fill-rule="evenodd" clip-rule="evenodd" d="M250.004 149.835C250.293 149.83 250.583 149.824 250.869 149.82C250.579 149.825 250.291 149.83 250.004 149.835Z" fill="black"/>
<path fill-rule="evenodd" clip-rule="evenodd" d="M262.341 141.944C262.315 141.677 262.29 141.41 262.265 141.144C262.29 141.411 262.316 141.678 262.341 141.944Z" fill="black"/>
<path fill-rule="evenodd" clip-rule="evenodd" d="M252.112 141.944C252.094 141.67 252.075 141.396 252.056 141.122C252.075 141.397 252.094 141.671 252.112 141.944Z" fill="black"/>
<path fill-rule="evenodd" clip-rule="evenodd" d="M102.989 61.383C101.852 61.0846 101.639 59.4864 101.822 58.5048C102.029 58.0317 102.236 57.5588 102.443 57.0857C102.362 56.9108 102.281 56.7359 102.2 56.561C102.304 55.5867 102.039 55.1634 103.158 55.5579C105.238 56.2914 105.571 61.3078 102.989 61.383Z" fill="black"/>
<path fill-rule="evenodd" clip-rule="evenodd" d="M119.824 58.2929C120.761 58.2192 122.463 59.3103 121.53 60.3659C120.952 61.0199 119.048 60.7105 118.272 60.8471C117.241 61.0282 116.167 61.2759 116.724 59.7329C117.162 58.5212 118.725 58.2613 119.824 58.2929Z" fill="black"/>
<path fill-rule="evenodd" clip-rule="evenodd" d="M118.838 65.5509C117.886 64.7877 118.311 61.3116 119.76 61.937C121.25 62.5808 119.632 65.0493 118.838 65.5509Z" fill="black"/>
<path fill-rule="evenodd" clip-rule="evenodd" d="M101.822 58.5047C101.822 58.8705 101.821 59.2365 101.821 59.6006C101.622 59.2341 101.628 58.8693 101.822 58.5047Z" fill="black"/>
<path fill-rule="evenodd" clip-rule="evenodd" d="M102.989 61.3829C103.183 61.3775 103.377 61.3718 103.569 61.3669C103.374 61.373 103.182 61.378 102.989 61.3829Z" fill="black"/>
<path fill-rule="evenodd" clip-rule="evenodd" d="M220.496 161.491C220.407 163.072 218.71 161.903 218.83 160.845C219.049 158.926 220.134 160.822 220.496 161.491Z" fill="black"/>
<path fill-rule="evenodd" clip-rule="evenodd" d="M263.914 195.901C262.855 196.468 261.796 197.035 260.737 197.602C260.387 196.769 259.795 194.493 258.908 194.202C257.47 193.732 258.385 196.213 258.634 196.78C258.837 197.246 259.31 197.968 259.195 198.523C259.041 199.272 258.092 199.537 257.595 199.923C256.366 200.878 256.376 202.885 258.156 202.035C259.164 201.553 260.411 200.218 261.183 201.734C261.54 202.433 262.385 206.34 263.267 203.785C263.813 202.203 261.185 200.56 262.481 199.222C262.898 198.791 263.386 198.755 263.803 198.507C264.809 197.909 264.242 196.804 263.914 195.901Z" fill="black"/>
<path fill-rule="evenodd" clip-rule="evenodd" d="M78.1749 19.4627C77.3129 19.1475 76.2465 18.5318 75.2883 18.7416C74.2699 18.9645 73.86 19.9844 73.1196 20.5975C71.1067 22.2648 69.9342 19.7799 68.8282 18.4181C67.7836 17.1323 66.5092 16.8202 65.0353 17.6103C64.4481 17.9253 61.9743 19.3684 62.4058 20.293C62.716 20.9584 63.9382 20.3611 64.3551 20.2158C65.2601 19.9008 66.1005 19.6251 67.0261 20.0844C68.7623 20.9454 69.2128 23.3066 71.3134 23.6747C73.4855 24.0555 73.5568 21.9885 75.1069 21.2104C76.1461 20.689 76.8701 21.6121 77.8726 21.4282C78.8279 21.2531 79.2698 19.8628 78.1749 19.4627Z" fill="#FF9F68"/>
<path fill-rule="evenodd" clip-rule="evenodd" d="M60.6381 27.7933C61.4064 27.9601 61.9078 26.4701 62.3886 26.0922C63.1863 25.4657 64.5693 25.3394 65.3816 25.97C66.9678 27.2007 66.4211 29.8578 68.6797 30.5504C70.6983 31.1696 71.6492 28.5109 73.3484 27.849C74.3364 27.4641 75.4208 27.2121 75.0353 25.831C74.7691 24.876 73.9847 24.6307 73.1319 24.9976C71.6663 25.6275 71.1687 28.1937 69.4312 28.2396C67.6335 28.2871 67.4385 25.6955 66.6668 24.5667C65.4902 22.8463 63.0714 22.4307 61.697 24.0758C61.282 24.5721 59.175 27.4764 60.6381 27.7933Z" fill="#FF9F68"/>
<path fill-rule="evenodd" clip-rule="evenodd" d="M315.848 106.927C315.639 107.453 313.685 107.276 313.643 106.656C313.579 105.73 316.211 106.013 315.848 106.927ZM317.922 106.583C319.029 106.678 320.848 107.47 321.915 106.992C323.543 106.261 321.833 105.14 320.96 104.804C320.071 104.463 318.747 104.644 318.29 103.665C317.947 102.929 318.796 100.873 317.742 101.203C316.636 101.55 316.958 104.495 315.222 103.502C314.395 103.029 314.733 100.143 313.346 101.617C312.967 102.021 312.934 102.761 312.431 103.062C311.918 103.369 311.275 103.049 310.734 103.076C309.3 103.147 308.844 104.56 310.296 105.12C310.834 105.327 312.86 105.581 311.632 106.506C310.859 107.089 309.141 105.866 308.477 106.881C307.564 108.275 310.009 108.307 310.666 108.724C311.779 109.43 310.86 111.08 310.948 112.255C311.084 114.05 312.074 113.675 312.433 112.156C312.738 110.867 312.36 109.011 314.204 109.524C317.207 110.358 312.534 114.375 314.734 115.403C316.137 116.059 316.335 112.515 316.444 111.905C316.847 109.653 318.048 110.179 319.866 110.248C321.991 110.328 322.504 108.672 320.254 108.198C319.536 108.047 318.549 108.238 317.925 107.756C317.556 107.471 317.049 106.509 317.922 106.583Z" fill="#F85959"/>
<path opacity="0.5" d="M321.812 153.09C320.105 156.133 317.056 156.965 314.561 157.796C309.733 158.611 301.706 158.949 295.98 157.153L292.05 163.279L289.81 152.658C289.627 152.27 289.483 151.859 289.383 151.427C287.609 143.666 288.275 138.217 288.829 136.46C289.566 134.148 293.596 129.586 303.796 129.808C313.996 130.03 319.683 132.674 321.258 133.965C323.198 135.811 326.025 142.225 321.812 153.09Z" fill="#F2A5FF"/>
<path d="M298.646 145.522H296.662L296.301 146.542H295.492L297.221 141.919H298.092L299.816 146.542H299.006L298.646 145.522ZM298.435 144.94L297.659 142.745L296.883 144.94H298.435Z" fill="black"/>
<path d="M301.141 141.621V146.543H300.381V141.621H301.141Z" fill="black"/>
<path d="M304.694 143.057C304.977 143.206 305.199 143.422 305.359 143.711C305.52 143.993 305.598 144.326 305.598 144.708C305.598 145.096 305.52 145.429 305.359 145.712C305.199 145.994 304.977 146.211 304.694 146.366C304.411 146.516 304.09 146.593 303.735 146.593C303.38 146.593 303.064 146.516 302.782 146.366C302.499 146.216 302.277 145.994 302.116 145.712C301.956 145.424 301.872 145.091 301.872 144.708C301.872 144.326 301.956 143.993 302.116 143.711C302.277 143.428 302.499 143.212 302.782 143.057C303.064 142.901 303.38 142.829 303.735 142.829C304.09 142.829 304.411 142.907 304.694 143.057ZM303.197 143.622C303.031 143.711 302.904 143.849 302.804 144.032C302.704 144.215 302.654 144.442 302.654 144.708C302.654 144.98 302.704 145.207 302.804 145.385C302.904 145.562 303.037 145.701 303.197 145.789C303.358 145.878 303.541 145.922 303.735 145.922C303.929 145.922 304.112 145.878 304.273 145.789C304.434 145.701 304.567 145.568 304.666 145.385C304.766 145.202 304.816 144.975 304.816 144.708C304.816 144.442 304.766 144.215 304.666 144.032C304.567 143.849 304.434 143.711 304.273 143.622C304.106 143.533 303.929 143.489 303.735 143.489C303.541 143.489 303.358 143.533 303.197 143.622Z" fill="black"/>
<path d="M309.4 143.228C309.655 143.506 309.788 143.894 309.788 144.404V146.538H309.029V144.481C309.029 144.154 308.946 143.899 308.774 143.722C308.608 143.544 308.375 143.45 308.081 143.45C307.782 143.45 307.538 143.544 307.355 143.738C307.172 143.932 307.083 144.215 307.083 144.586V146.538H306.324V141.615H307.083V143.677C307.183 143.4 307.344 143.19 307.577 143.04C307.809 142.89 308.075 142.813 308.375 142.813C308.802 142.818 309.145 142.951 309.4 143.228Z" fill="black"/>
<path d="M312.992 143.079C313.225 143.245 313.391 143.461 313.491 143.733V142.879H314.251V146.543H313.491V145.69C313.391 145.961 313.225 146.177 312.992 146.344C312.76 146.51 312.471 146.588 312.139 146.588C311.817 146.588 311.534 146.51 311.285 146.36C311.036 146.211 310.836 145.995 310.697 145.706C310.553 145.424 310.487 145.085 310.487 144.703C310.487 144.32 310.559 143.988 310.697 143.705C310.842 143.422 311.036 143.206 311.285 143.051C311.534 142.901 311.823 142.824 312.139 142.824C312.477 142.829 312.76 142.912 312.992 143.079ZM311.568 143.816C311.368 144.032 311.263 144.326 311.263 144.703C311.263 145.08 311.363 145.374 311.568 145.59C311.767 145.806 312.039 145.911 312.377 145.911C312.588 145.911 312.782 145.861 312.948 145.762C313.114 145.662 313.247 145.523 313.347 145.34C313.447 145.157 313.491 144.947 313.491 144.703C313.491 144.465 313.441 144.254 313.347 144.065C313.247 143.882 313.114 143.738 312.948 143.639C312.782 143.539 312.588 143.489 312.377 143.489C312.039 143.494 311.767 143.605 311.568 143.816Z" fill="black"/>
<path d="M50.9659 122.447C50.977 122.469 46.7086 113.933 46.437 113.389C47.6011 106.965 47.9947 96.3103 37.2848 95.0575C21.1647 92.574 12.0347 93.2614 5.7541 96.1218C1.05885 97.9677 -1.65186 109.725 1.10874 115.263C2.61654 118.151 5.6266 119.016 9.91163 120.202C16.8797 122.126 34.0531 120.884 40.0898 119.953C41.9191 120.374 50.9049 122.436 50.9659 122.447Z" fill="#FFAB7C"/>
<path d="M7.92708 105.922C8.17654 106.071 8.3761 106.288 8.51468 106.576C8.65881 106.859 8.72533 107.191 8.72533 107.574C8.72533 107.962 8.65327 108.294 8.51468 108.577C8.37055 108.86 8.17654 109.076 7.92708 109.231C7.67763 109.381 7.38938 109.458 7.0734 109.458C6.7408 109.458 6.45809 109.375 6.21972 109.215C5.98136 109.054 5.8206 108.827 5.72636 108.555V109.409H4.96692V104.486H5.72636V106.593C5.8206 106.321 5.98136 106.105 6.21972 105.938C6.45809 105.772 6.7408 105.695 7.0734 105.695C7.38938 105.695 7.67763 105.772 7.92708 105.922ZM6.26407 106.509C6.09777 106.609 5.96473 106.753 5.86495 106.936C5.76517 107.119 5.72082 107.33 5.72082 107.574C5.72082 107.818 5.77071 108.028 5.86495 108.211C5.96473 108.394 6.09777 108.533 6.26407 108.633C6.43037 108.732 6.62439 108.782 6.83504 108.782C7.17318 108.782 7.44481 108.677 7.64437 108.461C7.84393 108.244 7.94926 107.951 7.94926 107.574C7.94926 107.202 7.84948 106.909 7.64437 106.687C7.43927 106.471 7.16764 106.36 6.83504 106.36C6.62439 106.36 6.43591 106.41 6.26407 106.509Z" fill="black"/>
<path d="M12.8386 105.74V109.404H12.0736V108.611C11.9793 108.883 11.8186 109.093 11.5858 109.237C11.3529 109.387 11.0869 109.459 10.782 109.459C10.3551 109.459 10.017 109.321 9.75645 109.049C9.49591 108.777 9.36841 108.384 9.36841 107.874V105.745H10.1279V107.796C10.1279 108.129 10.211 108.384 10.3828 108.567C10.5491 108.744 10.782 108.838 11.0758 108.838C11.3751 108.838 11.619 108.739 11.802 108.545C11.9849 108.35 12.0736 108.068 12.0736 107.691V105.751H12.8386V105.74Z" fill="black"/>
<path d="M16.3864 105.923C16.6691 106.072 16.8908 106.288 17.0516 106.577C17.2124 106.859 17.29 107.192 17.29 107.574C17.29 107.962 17.2124 108.295 17.0516 108.578C16.8908 108.861 16.6691 109.077 16.3864 109.232C16.1037 109.382 15.7822 109.459 15.4274 109.459C15.0726 109.459 14.7566 109.382 14.4739 109.232C14.1912 109.082 13.9695 108.861 13.8087 108.578C13.648 108.29 13.5648 107.957 13.5648 107.574C13.5648 107.192 13.648 106.859 13.8087 106.577C13.9695 106.294 14.1912 106.078 14.4739 105.923C14.7566 105.767 15.0726 105.695 15.4274 105.695C15.7822 105.695 16.0981 105.773 16.3864 105.923ZM14.8897 106.488C14.7234 106.577 14.5959 106.715 14.4961 106.898C14.3963 107.081 14.3464 107.308 14.3464 107.574C14.3464 107.846 14.3963 108.073 14.4961 108.251C14.5959 108.428 14.7289 108.567 14.8897 108.655C15.0504 108.744 15.2334 108.788 15.4274 108.788C15.6214 108.788 15.8043 108.744 15.9651 108.655C16.1259 108.567 16.2589 108.434 16.3587 108.251C16.4585 108.068 16.5084 107.841 16.5084 107.574C16.5084 107.308 16.4585 107.081 16.3587 106.898C16.2589 106.715 16.1259 106.577 15.9651 106.488C15.7988 106.399 15.6214 106.355 15.4274 106.355C15.2334 106.355 15.0504 106.399 14.8897 106.488Z" fill="black"/>
<path d="M21.0926 106.094C21.3476 106.372 21.4807 106.76 21.4807 107.27V109.404H20.7212V107.347C20.7212 107.02 20.6381 106.765 20.4662 106.588C20.2999 106.41 20.0671 106.316 19.7733 106.316C19.474 106.316 19.2301 106.41 19.0471 106.604C18.8642 106.798 18.7755 107.081 18.7755 107.452V109.404H18.0161V105.74H18.7755V106.543C18.8753 106.266 19.036 106.056 19.2689 105.906C19.5017 105.756 19.7678 105.679 20.0671 105.679C20.4939 105.684 20.8376 105.817 21.0926 106.094Z" fill="black"/>
<path d="M24.6848 105.939C24.9176 106.105 25.0839 106.322 25.1837 106.593V105.74H25.9432V109.443C25.9432 109.786 25.8711 110.086 25.7325 110.352C25.5939 110.618 25.3944 110.823 25.1283 110.973C24.8677 111.122 24.5573 111.2 24.197 111.2C23.6815 111.2 23.2657 111.078 22.9497 110.834C22.6338 110.59 22.4342 110.257 22.3566 109.842H23.1105C23.1715 110.058 23.2934 110.23 23.4708 110.352C23.6482 110.474 23.8755 110.535 24.1471 110.535C24.4464 110.535 24.6959 110.44 24.8899 110.257C25.0839 110.069 25.1837 109.803 25.1837 109.448V108.556C25.0839 108.827 24.9176 109.043 24.6848 109.21C24.452 109.376 24.1637 109.454 23.8311 109.454C23.5096 109.454 23.2269 109.376 22.9774 109.226C22.728 109.077 22.5284 108.861 22.3898 108.572C22.2457 108.29 22.1792 107.951 22.1792 107.569C22.1792 107.186 22.2513 106.854 22.3898 106.571C22.534 106.288 22.728 106.072 22.9774 105.917C23.2269 105.767 23.5152 105.69 23.8311 105.69C24.1693 105.695 24.452 105.778 24.6848 105.939ZM23.2602 106.682C23.0606 106.898 22.9553 107.192 22.9553 107.569C22.9553 107.946 23.0551 108.24 23.2602 108.456C23.4597 108.672 23.7313 108.777 24.0695 108.777C24.2801 108.777 24.4742 108.727 24.6405 108.628C24.8068 108.528 24.9398 108.389 25.0396 108.206C25.1394 108.023 25.1837 107.813 25.1837 107.569C25.1837 107.331 25.1338 107.12 25.0396 106.931C24.9398 106.748 24.8068 106.604 24.6405 106.505C24.4742 106.405 24.2801 106.355 24.0695 106.355C23.7313 106.36 23.4597 106.466 23.2602 106.682Z" fill="black"/>
<path d="M26.88 104.359C26.9687 104.276 27.0851 104.232 27.2347 104.232C27.3789 104.232 27.5008 104.276 27.5895 104.359C27.6782 104.442 27.7281 104.548 27.7281 104.681C27.7281 104.808 27.6837 104.914 27.5895 104.991C27.5008 105.069 27.3789 105.113 27.2347 105.113C27.0906 105.113 26.9687 105.074 26.88 104.991C26.7913 104.914 26.7469 104.808 26.7469 104.681C26.7469 104.548 26.7913 104.442 26.88 104.359ZM27.6117 105.74V109.404H26.8522V105.74H27.6117Z" fill="black"/>
<path d="M31.165 105.923C31.4477 106.072 31.6695 106.288 31.8302 106.577C31.991 106.859 32.0686 107.192 32.0686 107.574C32.0686 107.962 31.991 108.295 31.8302 108.578C31.6695 108.861 31.4477 109.077 31.165 109.232C30.8823 109.382 30.5608 109.459 30.206 109.459C29.8512 109.459 29.5353 109.382 29.2526 109.232C28.9698 109.082 28.7481 108.861 28.5874 108.578C28.4266 108.29 28.3434 107.957 28.3434 107.574C28.3434 107.192 28.4266 106.859 28.5874 106.577C28.7481 106.294 28.9698 106.078 29.2526 105.923C29.5353 105.767 29.8512 105.695 30.206 105.695C30.5608 105.695 30.8823 105.773 31.165 105.923ZM29.6683 106.488C29.502 106.577 29.3745 106.715 29.2747 106.898C29.175 107.081 29.1251 107.308 29.1251 107.574C29.1251 107.846 29.175 108.073 29.2747 108.251C29.3745 108.428 29.5076 108.567 29.6683 108.655C29.8291 108.744 30.012 108.788 30.206 108.788C30.4 108.788 30.583 108.744 30.7437 108.655C30.9045 108.567 31.0375 108.434 31.1373 108.251C31.2371 108.068 31.287 107.841 31.287 107.574C31.287 107.308 31.2371 107.081 31.1373 106.898C31.0375 106.715 30.9045 106.577 30.7437 106.488C30.5774 106.399 30.4 106.355 30.206 106.355C30.012 106.355 29.8346 106.399 29.6683 106.488Z" fill="black"/>
<path d="M34.092 105.889C34.3248 105.751 34.5909 105.679 34.8902 105.679V106.505H34.6629C34.3303 106.505 34.0642 106.588 33.8591 106.748C33.6596 106.909 33.5542 107.175 33.5542 107.552V109.409H32.7948V105.745H33.5542V106.466C33.6817 106.222 33.8591 106.033 34.092 105.889Z" fill="black"/>
<path d="M38.5266 106.094C38.7816 106.372 38.9146 106.76 38.9146 107.27V109.404H38.1552V107.347C38.1552 107.02 38.072 106.765 37.9002 106.588C37.7339 106.41 37.501 106.316 37.2072 106.316C36.9079 106.316 36.664 106.41 36.4811 106.604C36.2981 106.798 36.2094 107.081 36.2094 107.452V109.404H35.45V105.74H36.2094V106.543C36.3092 106.266 36.47 106.056 36.7028 105.906C36.9356 105.756 37.2017 105.679 37.501 105.679C37.9279 105.684 38.2716 105.817 38.5266 106.094Z" fill="black"/>
<path d="M42.4347 105.923C42.7174 106.072 42.9392 106.288 43.0999 106.577C43.2607 106.859 43.3383 107.192 43.3383 107.574C43.3383 107.962 43.2607 108.295 43.0999 108.578C42.9392 108.861 42.7174 109.077 42.4347 109.232C42.152 109.382 41.8305 109.459 41.4757 109.459C41.1209 109.459 40.805 109.382 40.5222 109.232C40.2395 109.082 40.0178 108.861 39.857 108.578C39.6963 108.29 39.6131 107.957 39.6131 107.574C39.6131 107.192 39.6963 106.859 39.857 106.577C40.0178 106.294 40.2395 106.078 40.5222 105.923C40.805 105.767 41.1209 105.695 41.4757 105.695C41.8305 105.695 42.152 105.773 42.4347 105.923ZM40.938 106.488C40.7717 106.577 40.6442 106.715 40.5444 106.898C40.4446 107.081 40.3947 107.308 40.3947 107.574C40.3947 107.846 40.4446 108.073 40.5444 108.251C40.6442 108.428 40.7772 108.567 40.938 108.655C41.0988 108.744 41.2817 108.788 41.4757 108.788C41.6697 108.788 41.8527 108.744 42.0134 108.655C42.1742 108.567 42.3072 108.434 42.407 108.251C42.5068 108.068 42.5567 107.841 42.5567 107.574C42.5567 107.308 42.5068 107.081 42.407 106.898C42.3072 106.715 42.1742 106.577 42.0134 106.488C41.8471 106.399 41.6697 106.355 41.4757 106.355C41.2817 106.355 41.0988 106.399 40.938 106.488Z" fill="black"/>
<path opacity="0.5" d="M279.374 36.3162L270.931 33.611C265.432 35.3572 257.433 35.1576 252.544 34.5811C246.779 33.9159 243.857 27.8348 243.12 24.8802C241.125 15.1238 243.735 12.208 246.723 10.4674C248.664 9.35872 254.761 7.25223 263.631 7.6957C272.5 8.13917 276.198 13.2391 276.935 15.7336C277.212 16.6593 277.6 20.39 276.935 27.929C276.902 28.3226 276.824 28.6996 276.708 29.0543L279.374 36.3162Z" fill="#FFAB7C"/>
<path d="M255.981 18.732V23.4328H255.216V21.3263H253.01V23.4328H252.25V18.7376H253.01V20.7055H255.216V18.7376H255.981V18.732Z" fill="black"/>
<path d="M259.534 19.9466C259.817 20.0963 260.039 20.3125 260.199 20.6007C260.36 20.8835 260.438 21.2161 260.438 21.593C260.438 21.981 260.36 22.3136 260.199 22.5964C260.039 22.8791 259.817 23.0953 259.534 23.2505C259.251 23.4002 258.93 23.4778 258.575 23.4778C258.22 23.4778 257.904 23.4002 257.622 23.2505C257.339 23.1008 257.117 22.8791 256.957 22.5964C256.796 22.3081 256.713 21.9755 256.713 21.593C256.713 21.2105 256.796 20.8779 256.957 20.5952C257.117 20.3125 257.339 20.0963 257.622 19.9411C257.904 19.7859 258.22 19.7193 258.575 19.7193C258.93 19.7193 259.251 19.797 259.534 19.9466ZM258.037 20.512C257.871 20.6007 257.744 20.7393 257.644 20.9223C257.544 21.1052 257.494 21.3325 257.494 21.5986C257.494 21.8702 257.544 22.0975 257.644 22.2748C257.744 22.4522 257.877 22.5908 258.037 22.6795C258.198 22.7682 258.381 22.8126 258.575 22.8126C258.769 22.8126 258.952 22.7682 259.113 22.6795C259.274 22.5908 259.407 22.4578 259.506 22.2748C259.606 22.0919 259.656 21.8646 259.656 21.5986C259.656 21.3325 259.606 21.1052 259.506 20.9223C259.407 20.7393 259.274 20.6007 259.113 20.512C258.947 20.4234 258.769 20.379 258.575 20.379C258.381 20.379 258.198 20.4234 258.037 20.512Z" fill="black"/>
<path d="M261.929 18.5109V23.4334H261.169V18.5109H261.929Z" fill="black"/>
<path d="M265.166 19.9633C265.399 20.1296 265.565 20.3458 265.665 20.6174V19.7637H266.424V23.4334H265.665V22.5798C265.565 22.8514 265.399 23.0676 265.166 23.2339C264.933 23.4002 264.651 23.4778 264.318 23.4778C263.996 23.4778 263.714 23.4002 263.464 23.2505C263.215 23.1008 263.015 22.8846 262.877 22.5964C262.733 22.3137 262.666 21.9755 262.666 21.593C262.666 21.2105 262.738 20.8779 262.877 20.5952C263.021 20.3125 263.215 20.0963 263.464 19.9411C263.714 19.7914 264.002 19.7138 264.318 19.7138C264.651 19.7194 264.933 19.8025 265.166 19.9633ZM263.741 20.7061C263.542 20.9223 263.437 21.2161 263.437 21.593C263.437 21.97 263.536 22.2638 263.741 22.48C263.941 22.6962 264.213 22.8015 264.551 22.8015C264.761 22.8015 264.955 22.7516 265.122 22.6518C265.288 22.552 265.421 22.4135 265.521 22.2305C265.621 22.0476 265.665 21.837 265.665 21.593C265.665 21.3547 265.615 21.144 265.521 20.9556C265.421 20.7726 265.288 20.6285 265.122 20.5287C264.955 20.4289 264.761 20.379 264.551 20.379C264.213 20.3846 263.941 20.4899 263.741 20.7061Z" fill="black"/>
<path d="M212.235 53.6365C211.001 60.361 205.734 63.7748 201.907 64.538C193.823 66.133 188.016 65.5707 183.988 64.1363V64.1421L176.558 69.5067L177.895 60.2003C177.12 59.3052 176.627 58.4159 176.375 57.6528C173.85 46.1776 178.193 40.6293 180.678 39.2924C184.12 37.2269 194.735 37.0949 199.612 37.2842C212.235 36.5957 213.285 47.8988 212.235 53.6365Z" fill="#FFF6A5"/>
<path d="M188.676 47.6579L189.565 47.9448C189.405 48.4554 189.227 48.9488 189.02 49.4365V54.1988H188.12V51.2267C187.965 51.4964 187.798 51.7603 187.62 52.0185L187.339 50.7218C187.884 49.8267 188.332 48.8054 188.676 47.6579ZM189.227 52.8103C189.537 52.1619 189.818 51.416 190.076 50.5783L190.937 50.8078C190.696 51.657 190.409 52.4488 190.076 53.189C189.818 53.057 189.537 52.9365 189.227 52.8103ZM193.863 48.4898V49.2702L193.553 50.4464L192.664 50.2742L192.922 49.3218H190.701C190.466 49.8324 190.214 50.28 189.944 50.6587C189.766 50.5037 189.531 50.3144 189.238 50.0964C189.68 49.4365 190.042 48.6333 190.334 47.6866L191.287 47.8128C191.206 48.048 191.126 48.2718 191.046 48.4898H193.863ZM192.165 49.7292V53.275C192.165 53.5389 192.107 53.7455 191.998 53.8889C191.889 54.0324 191.706 54.1127 191.453 54.1357C191.201 54.1586 190.851 54.1643 190.397 54.1643C190.363 53.9004 190.306 53.6135 190.231 53.298C190.449 53.3152 190.638 53.3267 190.787 53.3267C190.96 53.3267 191.074 53.3037 191.137 53.2635C191.201 53.2234 191.229 53.1373 191.229 53.0111V49.7292H192.165ZM193.237 50.6414C193.433 51.1291 193.691 51.8922 194.012 52.9365L193.088 53.2349C192.853 52.3226 192.629 51.5308 192.411 50.8652L193.237 50.6414Z" fill="black"/>
<path d="M194.23 48.8341H195.022C195.079 48.4497 195.137 48.0423 195.188 47.612L196.124 47.698L195.934 48.8341H197.26C197.219 50.3603 196.984 51.548 196.542 52.3972L197.489 53.2062L196.818 53.9234C196.56 53.6594 196.307 53.4012 196.043 53.1488C195.705 53.5562 195.303 53.9119 194.833 54.1988C194.626 53.9234 194.425 53.6709 194.23 53.4529C194.678 53.1889 195.062 52.8734 195.372 52.5062C195.062 52.2193 194.758 51.9381 194.442 51.657C194.609 51.089 194.752 50.4291 194.89 49.6718H194.236V48.8341H194.23ZM195.401 51.4275L195.831 51.7947C196.095 51.2439 196.255 50.5382 196.324 49.6718H195.779C195.653 50.28 195.533 50.8652 195.401 51.4275ZM197.265 50.5095H198.705V49.8726L199.641 48.8169H197.501V47.9333H200.8V48.8857L199.658 50.2054V50.5095H200.914V51.416H199.658V53.0742C199.658 53.2234 199.629 53.3898 199.566 53.5734C199.503 53.757 199.4 53.9119 199.239 54.0324C199.078 54.1529 198.826 54.216 198.47 54.2217C198.114 54.2275 197.845 54.2275 197.65 54.2275C197.61 53.9119 197.552 53.6135 197.483 53.3209C197.851 53.3611 198.114 53.3783 198.281 53.3783C198.562 53.3783 198.7 53.1832 198.7 52.7988V51.416H197.26V50.5095H197.265Z" fill="black"/>
<path d="M160.072 28.6809L151.63 25.9757C146.131 27.7219 138.132 27.5223 133.242 26.9458C127.477 26.2806 124.556 20.1995 123.819 17.2449C121.823 7.48855 124.434 4.57273 127.422 2.83211C129.362 1.72343 135.46 -0.383052 144.329 0.0604182C153.199 0.503889 156.896 5.6038 157.633 8.09832C157.91 9.02406 158.298 12.7548 157.633 20.2938C157.6 20.6873 157.522 21.0643 157.406 21.4191L160.072 28.6809Z" fill="#BEFFA7"/>
<path d="M136.679 11.0967V15.7975H135.914V13.691H133.708V15.7975H132.949V11.1023H133.708V13.0702H135.914V11.1023H136.679V11.0967Z" fill="black"/>
<path d="M140.233 12.3113C140.515 12.461 140.737 12.6772 140.898 12.9654C141.058 13.2481 141.136 13.5807 141.136 13.9577C141.136 14.3457 141.058 14.6783 140.898 14.961C140.737 15.2438 140.515 15.4599 140.233 15.6152C139.95 15.7648 139.628 15.8424 139.274 15.8424C138.919 15.8424 138.603 15.7648 138.32 15.6152C138.037 15.4655 137.816 15.2438 137.655 14.961C137.494 14.6728 137.411 14.3402 137.411 13.9577C137.411 13.5752 137.494 13.2426 137.655 12.9599C137.816 12.6772 138.037 12.461 138.32 12.3058C138.603 12.1506 138.919 12.084 139.274 12.084C139.628 12.084 139.95 12.1616 140.233 12.3113ZM138.736 12.8767C138.57 12.9654 138.442 13.104 138.342 13.2869C138.242 13.4699 138.193 13.6972 138.193 13.9632C138.193 14.2349 138.242 14.4621 138.342 14.6395C138.442 14.8169 138.575 14.9555 138.736 15.0442C138.897 15.1329 139.079 15.1772 139.274 15.1772C139.468 15.1772 139.65 15.1329 139.811 15.0442C139.972 14.9555 140.105 14.8225 140.205 14.6395C140.305 14.4566 140.354 14.2293 140.354 13.9632C140.354 13.6972 140.305 13.4699 140.205 13.2869C140.105 13.104 139.972 12.9654 139.811 12.8767C139.645 12.788 139.468 12.7437 139.274 12.7437C139.079 12.7437 138.897 12.788 138.736 12.8767Z" fill="black"/>
<path d="M142.627 10.8756V15.7981H141.868V10.8756H142.627Z" fill="black"/>
<path d="M145.865 12.3279C146.097 12.4942 146.264 12.7104 146.364 12.9821V12.1284H147.123V15.7981H146.364V14.9444C146.264 15.216 146.097 15.4322 145.865 15.5985C145.632 15.7648 145.349 15.8424 145.017 15.8424C144.695 15.8424 144.412 15.7648 144.163 15.6152C143.913 15.4655 143.714 15.2493 143.575 14.961C143.431 14.6783 143.365 14.3402 143.365 13.9577C143.365 13.5752 143.437 13.2426 143.575 12.9599C143.719 12.6772 143.913 12.461 144.163 12.3058C144.412 12.1561 144.701 12.0785 145.017 12.0785C145.349 12.084 145.632 12.1672 145.865 12.3279ZM144.44 13.0708C144.24 13.2869 144.135 13.5807 144.135 13.9577C144.135 14.3346 144.235 14.6284 144.44 14.8446C144.64 15.0608 144.911 15.1662 145.249 15.1662C145.46 15.1662 145.654 15.1163 145.82 15.0165C145.987 14.9167 146.12 14.7781 146.219 14.5952C146.319 14.4123 146.364 14.2016 146.364 13.9577C146.364 13.7193 146.314 13.5087 146.219 13.3202C146.12 13.1373 145.987 12.9931 145.82 12.8934C145.654 12.7936 145.46 12.7437 145.249 12.7437C144.911 12.7492 144.64 12.8546 144.44 13.0708Z" fill="black"/>
<path opacity="0.5" d="M47.8957 36.6518C46.1883 39.6951 43.1395 40.5266 40.645 41.3581C35.8167 42.173 27.7899 42.5111 22.0636 40.7151L18.1333 46.8405L15.8938 36.2194C15.7108 35.8313 15.5667 35.4211 15.4669 34.9888C13.6931 27.228 14.3583 21.7789 14.9126 20.0216C15.6499 17.71 19.6799 13.1478 29.8797 13.3696C40.0795 13.5913 45.7671 16.2355 47.3414 17.5271C49.2816 19.373 52.1087 25.7867 47.8957 36.6518Z" fill="#FFC2C2"/>
<path d="M24.7299 29.0842H22.7454L22.385 30.1042H21.5757L23.3052 25.481H24.1756L25.8996 30.1042H25.0902L24.7299 29.0842ZM24.5192 28.5022L23.7432 26.307L22.9671 28.5022H24.5192Z" fill="black"/>
<path d="M27.2243 25.1826V30.1051H26.4649V25.1826H27.2243Z" fill="black"/>
<path d="M30.7777 26.6183C31.0604 26.7679 31.2821 26.9841 31.4429 27.2724C31.6037 27.5551 31.6813 27.8877 31.6813 28.2702C31.6813 28.6582 31.6037 28.9908 31.4429 29.2735C31.2821 29.5562 31.0604 29.7724 30.7777 29.9277C30.495 30.0773 30.1735 30.1549 29.8187 30.1549C29.4639 30.1549 29.1479 30.0773 28.8652 29.9277C28.5825 29.778 28.3608 29.5562 28.2 29.2735C28.0393 28.9853 27.9561 28.6527 27.9561 28.2702C27.9561 27.8877 28.0393 27.5551 28.2 27.2724C28.3608 26.9897 28.5825 26.7735 28.8652 26.6183C29.1479 26.463 29.4639 26.391 29.8187 26.391C30.1735 26.391 30.495 26.4686 30.7777 26.6183ZM29.281 27.1837C29.1147 27.2724 28.9872 27.411 28.8874 27.5939C28.7876 27.7768 28.7377 28.0041 28.7377 28.2702C28.7377 28.5418 28.7876 28.7691 28.8874 28.9465C28.9872 29.1239 29.1202 29.2624 29.281 29.3511C29.4417 29.4398 29.6247 29.4842 29.8187 29.4842C30.0127 29.4842 30.1956 29.4398 30.3564 29.3511C30.5172 29.2624 30.6502 29.1294 30.75 28.9465C30.8498 28.7635 30.8997 28.5363 30.8997 28.2702C30.8997 28.0041 30.8498 27.7768 30.75 27.5939C30.6502 27.411 30.5172 27.2724 30.3564 27.1837C30.1901 27.095 30.0127 27.0506 29.8187 27.0506C29.6247 27.0506 29.4417 27.095 29.281 27.1837Z" fill="black"/>
<path d="M35.4841 26.7901C35.7391 27.0673 35.8721 27.4553 35.8721 27.9653V30.0995H35.1127V28.0429C35.1127 27.7159 35.0295 27.4609 34.8577 27.2835C34.6914 27.1061 34.4586 27.0119 34.1648 27.0119C33.8654 27.0119 33.6215 27.1061 33.4386 27.3001C33.2556 27.4941 33.1669 27.7768 33.1669 28.1483V30.0995H32.4075V25.177H33.1669V27.2391C33.2667 26.962 33.4275 26.7513 33.6603 26.6017C33.8931 26.452 34.1592 26.3744 34.4586 26.3744C34.8854 26.3799 35.2291 26.513 35.4841 26.7901Z" fill="black"/>
<path d="M39.0761 26.6404C39.309 26.8067 39.4753 27.0229 39.575 27.2946V26.4409H40.3345V30.1051H39.575V29.2514C39.4753 29.523 39.309 29.7392 39.0761 29.9055C38.8433 30.0718 38.5551 30.1494 38.2225 30.1494C37.9009 30.1494 37.6182 30.0718 37.3688 29.9221C37.1193 29.7725 36.9198 29.5563 36.7812 29.268C36.637 28.9853 36.5705 28.6472 36.5705 28.2647C36.5705 27.8822 36.6426 27.5496 36.7812 27.2668C36.9253 26.9841 37.1193 26.7679 37.3688 26.6127C37.6182 26.4631 37.9065 26.3855 38.2225 26.3855C38.5606 26.391 38.8433 26.4741 39.0761 26.6404ZM37.6515 27.3777C37.4519 27.5939 37.3466 27.8877 37.3466 28.2647C37.3466 28.6416 37.4464 28.9354 37.6515 29.1516C37.851 29.3678 38.1227 29.4731 38.4608 29.4731C38.6715 29.4731 38.8655 29.4232 39.0318 29.3234C39.1981 29.2237 39.3311 29.0851 39.4309 28.9021C39.5307 28.7192 39.575 28.5086 39.575 28.2647C39.575 28.0263 39.5251 27.8156 39.4309 27.6272C39.3311 27.4442 39.1981 27.3001 39.0318 27.2003C38.8655 27.1005 38.6715 27.0507 38.4608 27.0507C38.1227 27.0562 37.851 27.1671 37.6515 27.3777Z" fill="black"/>
</svg>
